<svg width="248" height="87" viewBox="0 0 248 87" fill="none" xmlns="http://www.w3.org/2000/svg">
<path d="M24.8476 24.5719L24.6301 20.8945" stroke="white" stroke-width="2"/>
<path d="M24.3772 21.3379L24.6105 24.1888" stroke="white" stroke-width="2"/>
<path d="M24.8476 24.5718L24.6301 20.8945C25.3142 0.0682313 51.783 -7.82812 63.5623 9.50669C63.6133 9.58064 63.6382 9.66958 63.6332 9.75969C63.6282 9.84979 63.5935 9.936 63.5346 10.0049L60.5453 13.5636C60.5072 13.6085 60.459 13.6437 60.4046 13.6663C60.3503 13.6889 60.2913 13.6983 60.2327 13.6936C60.174 13.689 60.1172 13.6705 60.0671 13.6396C60.0169 13.6088 59.9748 13.5665 59.9443 13.5162C56.5912 7.90132 50.4267 4.48892 43.8945 5.33115C26.9551 7.51777 24.211 30.5742 40.2133 36.7901C40.2662 36.811 40.3134 36.844 40.3512 36.8866C40.3891 36.9291 40.4164 36.9799 40.431 37.0349C40.4456 37.0899 40.4471 37.1475 40.4354 37.2032C40.4237 37.2589 40.3991 37.311 40.3635 37.3555C39.6333 38.2807 38.8676 39.2021 38.0662 40.1194C37.568 40.6967 37.394 40.8825 36.6071 40.4871C30.0881 37.1841 26.1683 31.879 24.8476 24.5718Z" fill="white"/>
<path d="M24.3769 21.3375L24.6102 24.1884C23.8194 33.4291 14.4956 41.6537 8.05832 47.4385C8.02894 47.4652 8.00828 47.5002 7.99902 47.5388C7.98977 47.5774 7.99235 47.6179 8.00643 47.655C8.0205 47.6921 8.04543 47.7241 8.07796 47.7469C8.11049 47.7696 8.14911 47.7821 8.1888 47.7826L25.1875 47.8063C25.2913 47.8063 25.3909 47.8475 25.4643 47.9209C25.5377 47.9944 25.579 48.0939 25.579 48.1977V51.8513C25.579 51.9824 25.5269 52.1081 25.4342 52.2008C25.3415 52.2935 25.2158 52.3456 25.0847 52.3456H0.759034C0.62182 52.3458 0.488722 52.2987 0.38214 52.2123C0.275558 52.1259 0.201995 52.0054 0.173825 51.8711C-0.336255 49.4749 0.272677 48.6406 2.04807 46.968C7.35449 41.9661 13.6652 36.371 17.3188 30.25C19.2326 27.0433 19.8297 22.2627 17.6549 19.139C14.4482 14.5285 6.84045 16.3988 3.30943 19.4553C3.24996 19.5061 3.1795 19.5424 3.10369 19.5613C3.02788 19.5802 2.94881 19.5813 2.87277 19.5644C2.79673 19.5475 2.72583 19.5131 2.66572 19.464C2.60561 19.4148 2.55794 19.3523 2.52652 19.2813L1.24934 16.4423C1.16494 16.2537 1.14875 16.0415 1.20354 15.8418C1.25833 15.6421 1.38071 15.4672 1.54986 15.347C8.92032 10.1118 22.7241 9.70053 24.3769 21.3375Z" fill="white"/>
<path d="M41.9175 16.7078C42.8151 15.7707 43.7997 17.1348 44.3216 16.4429C44.3635 16.3888 44.4246 16.3525 44.4925 16.3414C44.5604 16.3304 44.6299 16.3454 44.6867 16.3834C44.7434 16.4214 44.7831 16.4795 44.7976 16.5457C44.8121 16.6119 44.8002 16.6813 44.7645 16.7394C44.3796 17.3879 43.8445 17.5105 43.1591 17.1071C43.0299 17.0307 42.8929 17.0122 42.7479 17.0518L42.2141 17.202C42.1505 17.2193 42.0829 17.2153 42.0216 17.1907C41.9603 17.1661 41.9088 17.1222 41.875 17.066C41.8413 17.0097 41.8271 16.9441 41.8348 16.8794C41.8425 16.8146 41.8716 16.7543 41.9175 16.7078Z" fill="white"/>
<path d="M56.3855 22.5278C56.5178 22.4676 56.6303 22.3708 56.7095 22.2489C56.7887 22.127 56.8315 21.985 56.8328 21.8396C56.834 21.6942 56.7937 21.5514 56.7165 21.4282C56.6394 21.3049 56.5286 21.2063 56.3973 21.1438C55.6342 20.7879 54.6456 20.8552 53.839 20.44C53.0324 20.0209 52.9375 18.9058 53.4159 18.2731C54.1712 17.2727 56.0533 17.5258 57.0853 17.9015C57.1159 17.9128 57.1439 17.9302 57.1677 17.9526C57.1915 17.9749 57.2106 18.0018 57.2239 18.0317C57.2371 18.0615 57.2443 18.0937 57.245 18.1263C57.2456 18.159 57.2397 18.1914 57.2277 18.2217L57.0458 18.6685C56.9957 18.7977 56.91 18.828 56.7888 18.7595C55.9479 18.2824 55.0951 18.2217 54.2305 18.5776C54.0951 18.6338 53.9817 18.7327 53.9078 18.8592C53.8338 18.9858 53.8032 19.133 53.8207 19.2786C53.8381 19.4241 53.9027 19.56 54.0045 19.6654C54.1063 19.7709 54.2398 19.8401 54.3847 19.8627C55.0859 19.9681 55.791 20.1276 56.5001 20.3411C58.058 20.8156 58.0304 22.8757 56.5476 23.3067C55.2875 23.6705 54.1118 23.5321 53.0205 22.8915C52.9124 22.8309 52.8768 22.7413 52.9137 22.6227C53.035 22.2457 53.2419 22.1403 53.5345 22.3063C54.5231 22.8678 55.4734 22.9416 56.3855 22.5278Z" fill="white"/>
<path d="M38.4457 22.2003C37.5363 22.3031 35.5751 21.8167 35.5316 23.0623C35.5284 23.1422 35.498 23.2186 35.4455 23.279C35.3931 23.3394 35.3216 23.3801 35.2429 23.3944L34.8 23.4735C34.5654 23.5183 34.4929 23.43 34.5826 23.2086L36.6783 17.9733C36.7209 17.866 36.7949 17.7742 36.8905 17.7097C36.9861 17.6452 37.0991 17.6109 37.2149 17.6113C37.3306 17.6118 37.4438 17.6468 37.5398 17.7121C37.6359 17.7773 37.7104 17.8697 37.7538 17.9773L39.798 23.1058C39.8217 23.1626 39.8269 23.2252 39.8129 23.285C39.7989 23.3448 39.7665 23.3989 39.7201 23.4397C39.6737 23.4804 39.6155 23.506 39.5537 23.5128C39.4919 23.5195 39.4294 23.5072 39.375 23.4774C38.9664 23.2481 38.737 22.887 38.6869 22.394C38.6839 22.365 38.6753 22.337 38.6614 22.3114C38.6476 22.2859 38.6289 22.2634 38.6064 22.2454C38.5839 22.2273 38.5581 22.214 38.5305 22.2062C38.5029 22.1985 38.4741 22.1965 38.4457 22.2003ZM36.1919 21.2434C36.183 21.2666 36.1798 21.2917 36.1826 21.3164C36.1855 21.3411 36.1943 21.3648 36.2083 21.3854C36.2222 21.406 36.241 21.4229 36.2629 21.4346C36.2849 21.4464 36.3093 21.4527 36.3342 21.4529L38.0978 21.4608C38.1222 21.4604 38.1461 21.4541 38.1676 21.4425C38.1892 21.431 38.2076 21.4145 38.2215 21.3944C38.2354 21.3744 38.2444 21.3513 38.2476 21.3271C38.2508 21.3029 38.2483 21.2782 38.2401 21.2552L37.3702 18.95C37.3589 18.9217 37.3395 18.8974 37.3144 18.8802C37.2893 18.8629 37.2596 18.8535 37.2292 18.8531C37.1987 18.8527 37.1688 18.8613 37.1433 18.8778C37.1177 18.8943 37.0976 18.9181 37.0855 18.946L36.1919 21.2434Z" fill="white"/>
<path d="M41.6919 19.2526V23.1632C41.6919 23.3293 41.6102 23.4242 41.4468 23.4479L41.17 23.4835C41.1369 23.4886 41.1031 23.4864 41.0709 23.4771C41.0386 23.4677 41.0087 23.4514 40.9832 23.4293C40.9577 23.4072 40.9372 23.3797 40.923 23.3488C40.9089 23.3179 40.9014 23.2843 40.9011 23.2502V18.1455C40.9019 18.0281 40.9398 17.914 41.0092 17.8194C41.0787 17.7248 41.1762 17.6545 41.288 17.6186C41.3997 17.5826 41.5199 17.5829 41.6315 17.6193C41.7431 17.6557 41.8404 17.7264 41.9094 17.8212L44.6971 21.6765C44.7148 21.7006 44.7396 21.7185 44.768 21.7276C44.7965 21.7368 44.8271 21.7368 44.8555 21.7276C44.8839 21.7184 44.9088 21.7005 44.9265 21.6765C44.9441 21.6524 44.9538 21.6233 44.9541 21.5935V17.8964C44.9541 17.7303 45.0358 17.6473 45.1992 17.6473H45.5116C45.6698 17.6473 45.7489 17.7263 45.7489 17.8845C45.741 19.6164 45.741 21.3562 45.7489 23.1039C45.7492 23.1949 45.7207 23.2835 45.6673 23.357C45.6139 23.4305 45.5385 23.4851 45.4517 23.5132C45.3649 23.5413 45.2712 23.5413 45.1839 23.5132C45.0967 23.4852 45.0204 23.4305 44.9659 23.357L41.9292 19.1736C41.9131 19.1506 41.8899 19.1334 41.8632 19.1246C41.8366 19.1158 41.8078 19.1158 41.7811 19.1247C41.7544 19.1336 41.7314 19.1508 41.7153 19.1739C41.6992 19.1969 41.6911 19.2246 41.6919 19.2526Z" fill="white"/>
<path d="M52.3609 20.9074C52.3683 21.2349 52.3112 21.5608 52.1927 21.8662C52.0742 22.1717 51.8967 22.4509 51.6703 22.6878C51.444 22.9246 51.1732 23.1146 50.8734 23.2468C50.5736 23.379 50.2507 23.4509 49.9231 23.4584L49.1088 23.4769C48.7812 23.4843 48.4554 23.4271 48.1499 23.3087C47.8444 23.1902 47.5653 23.0127 47.3284 22.7863C47.0915 22.5599 46.9015 22.2891 46.7693 21.9893C46.6371 21.6895 46.5652 21.3666 46.5577 21.0391L46.5387 20.201C46.5313 19.8734 46.5885 19.5476 46.7069 19.2421C46.8254 18.9366 47.0029 18.6575 47.2293 18.4206C47.4557 18.1837 47.7265 17.9938 48.0263 17.8615C48.3261 17.7293 48.649 17.6574 48.9766 17.65L49.7909 17.6315C50.1184 17.6241 50.4443 17.6812 50.7497 17.7997C51.0552 17.9182 51.3344 18.0957 51.5713 18.3221C51.8082 18.5484 51.9981 18.8192 52.1304 19.119C52.2626 19.4188 52.3345 19.7417 52.3419 20.0693L52.3609 20.9074ZM49.5586 22.7737C49.8386 22.76 50.1131 22.689 50.3664 22.5646C50.6197 22.4402 50.8468 22.2649 51.0348 22.0487C51.2227 21.8326 51.3678 21.5798 51.4618 21.3048C51.5558 21.0298 51.5968 20.7379 51.5825 20.4459C51.5682 20.1539 51.4989 19.8675 51.3786 19.603C51.2582 19.3384 51.0891 19.101 50.881 18.9042C50.6728 18.7074 50.4297 18.5551 50.1655 18.456C49.9013 18.357 49.6212 18.313 49.3411 18.3267C49.061 18.3404 48.7865 18.4115 48.5332 18.5359C48.2799 18.6603 48.0528 18.8356 47.8649 19.0517C47.6769 19.2679 47.5318 19.5207 47.4379 19.7957C47.3439 20.0707 47.3029 20.3625 47.3171 20.6545C47.3314 20.9465 47.4007 21.233 47.5211 21.4975C47.6415 21.762 47.8105 21.9995 48.0187 22.1962C48.2268 22.393 48.4699 22.5453 48.7341 22.6444C48.9984 22.7435 49.2785 22.7874 49.5586 22.7737Z" fill="white"/>
<path d="M24.63 20.8945L24.8475 24.5719L24.6102 24.1883L24.377 21.3374C24.5378 21.3532 24.6221 21.2056 24.63 20.8945Z" fill="white"/>
<path d="M202.834 35.1465H208.852C208.89 35.1469 208.926 35.1584 208.957 35.1795C208.988 35.2006 209.012 35.2304 209.026 35.2651L220.185 63.0585C220.196 63.0875 220.201 63.1189 220.197 63.15C220.194 63.1811 220.183 63.2108 220.165 63.2367C220.148 63.2625 220.124 63.2835 220.096 63.298C220.069 63.3125 220.038 63.3198 220.007 63.3195H213.981C213.942 63.3196 213.904 63.3079 213.872 63.286C213.841 63.2641 213.816 63.233 213.803 63.1969L212.079 58.796C212.065 58.7599 212.041 58.7288 212.009 58.7069C211.977 58.685 211.939 58.6734 211.901 58.6734H199.501C199.462 58.673 199.425 58.6842 199.393 58.7053C199.362 58.7265 199.337 58.7567 199.323 58.7921L197.583 63.2009C197.569 63.2363 197.544 63.2665 197.512 63.2877C197.48 63.3088 197.443 63.3199 197.405 63.3195H191.774C191.743 63.3198 191.712 63.3125 191.685 63.298C191.657 63.2835 191.633 63.2625 191.616 63.2367C191.598 63.2108 191.587 63.1811 191.584 63.15C191.58 63.1189 191.585 63.0875 191.596 63.0585L202.656 35.2651C202.67 35.2298 202.695 35.1995 202.727 35.1784C202.758 35.1572 202.796 35.1461 202.834 35.1465ZM201.371 53.4659C201.364 53.4844 201.361 53.5044 201.364 53.5241C201.366 53.5439 201.373 53.5627 201.385 53.579C201.396 53.5954 201.411 53.6087 201.429 53.6179C201.446 53.6272 201.466 53.632 201.486 53.632H209.908C209.928 53.632 209.947 53.6272 209.965 53.6179C209.982 53.6087 209.998 53.5954 210.009 53.579C210.02 53.5627 210.027 53.5439 210.03 53.5241C210.032 53.5044 210.03 53.4844 210.023 53.4659L205.811 42.7463C205.803 42.723 205.787 42.7029 205.766 42.6888C205.746 42.6746 205.722 42.667 205.697 42.667C205.672 42.667 205.648 42.6746 205.627 42.6888C205.607 42.7029 205.591 42.723 205.582 42.7463L201.371 53.4659Z" fill="white"/>
<path d="M53.4238 57.981H68.1173C68.1613 57.981 68.2036 57.9985 68.2347 58.0297C68.2659 58.0608 68.2834 58.1031 68.2834 58.1471V63.153C68.2834 63.197 68.2659 63.2393 68.2347 63.2704C68.2036 63.3016 68.1613 63.3191 68.1173 63.3191H47.1961C47.1521 63.3191 47.1098 63.3016 47.0787 63.2704C47.0475 63.2393 47.03 63.197 47.03 63.153V35.5098C47.03 35.4658 47.0475 35.4235 47.0787 35.3924C47.1098 35.3612 47.1521 35.3438 47.1961 35.3438H67.9196C67.9636 35.3438 68.0059 35.3612 68.037 35.3924C68.0682 35.4235 68.0857 35.4658 68.0857 35.5098V40.7134C68.0857 40.7575 68.0682 40.7997 68.037 40.8309C68.0059 40.862 67.9636 40.8795 67.9196 40.8795H53.4238C53.3798 40.8795 53.3375 40.897 53.3064 40.9281C53.2752 40.9593 53.2578 41.0015 53.2578 41.0456V46.1503C53.2578 46.1944 53.2752 46.2366 53.3064 46.2678C53.3375 46.2989 53.3798 46.3164 53.4238 46.3164H67.5242C67.5682 46.3164 67.6105 46.3339 67.6416 46.365C67.6728 46.3962 67.6902 46.4384 67.6902 46.4825V51.5872C67.6902 51.6313 67.6728 51.6735 67.6416 51.7047C67.6105 51.7358 67.5682 51.7533 67.5242 51.7533H53.4238C53.3798 51.7533 53.3375 51.7708 53.3064 51.8019C53.2752 51.8331 53.2578 51.8753 53.2578 51.9194V57.815C53.2578 57.859 53.2752 57.9012 53.3064 57.9324C53.3375 57.9635 53.3798 57.981 53.4238 57.981Z" fill="white"/>
<path d="M78.5561 45.1816C78.5473 45.1608 78.5317 45.1437 78.5118 45.1331C78.4919 45.1224 78.469 45.1189 78.4469 45.123C78.4247 45.1272 78.4047 45.1388 78.39 45.1559C78.3754 45.173 78.367 45.1946 78.3663 45.2172V63.1214C78.3663 63.2532 78.3004 63.3191 78.1686 63.3191H72.9768C72.8134 63.3191 72.7317 63.236 72.7317 63.07V35.5929C72.7317 35.4268 72.8134 35.3438 72.9768 35.3438H80.6439C80.7079 35.3437 80.7706 35.3634 80.8235 35.4001C80.8765 35.4368 80.9172 35.4889 80.9404 35.5494L88.3781 54.2958C88.3836 54.3085 88.3928 54.3193 88.4043 54.3269C88.4159 54.3345 88.4295 54.3385 88.4433 54.3385C88.4572 54.3385 88.4707 54.3345 88.4823 54.3269C88.4939 54.3193 88.503 54.3085 88.5086 54.2958L95.966 35.494C95.9822 35.45 96.0117 35.412 96.0506 35.3852C96.0895 35.3583 96.1359 35.3438 96.1835 35.3438H103.87C104.002 35.3438 104.068 35.4097 104.068 35.5415V63.157C104.068 63.1999 104.051 63.2412 104.022 63.2716C103.992 63.302 103.952 63.3191 103.91 63.3191H98.2871C98.121 63.3191 98.038 63.2374 98.038 63.0739V45.5295C98.038 44.9153 97.9233 44.8929 97.694 45.4623L90.6003 63.1253C90.5476 63.2545 90.4527 63.3191 90.3156 63.3191H86.0294C85.8976 63.3191 85.8066 63.2571 85.7565 63.1332L78.5561 45.1816Z" fill="white"/>
<path d="M115.93 55.0037V63.0701C115.93 63.2362 115.849 63.3192 115.685 63.3192H110.15C109.983 63.3192 109.9 63.2362 109.9 63.0701V35.5495C109.9 35.496 109.922 35.4447 109.959 35.4069C109.997 35.3691 110.049 35.3479 110.102 35.3479C114.713 35.3426 119.357 35.3373 124.036 35.332C127.148 35.3281 131.059 36.1466 132.953 38.7682C135.278 41.9829 135.092 48.3846 132.55 51.4609C128.963 55.8025 121.154 54.6202 116.18 54.7507C116.013 54.7559 115.93 54.8403 115.93 55.0037ZM115.946 40.7096L115.915 49.3059C115.915 49.3447 115.93 49.3819 115.957 49.4093C115.985 49.4368 116.022 49.4522 116.061 49.4522L124.262 49.4798C124.799 49.4816 125.332 49.3866 125.829 49.2003C126.326 49.0141 126.778 48.7402 127.16 48.3943C127.541 48.0484 127.843 47.6373 128.05 47.1844C128.257 46.7316 128.365 46.2459 128.366 45.7551L128.374 44.3395C128.377 43.3487 127.948 42.3972 127.183 41.6943C126.418 40.9914 125.378 40.5945 124.293 40.591L116.093 40.5633C116.073 40.5633 116.054 40.5671 116.037 40.5745C116.019 40.5818 116.003 40.5926 115.989 40.6062C115.975 40.6198 115.965 40.6359 115.957 40.6536C115.95 40.6714 115.946 40.6904 115.946 40.7096Z" fill="white"/>
<path d="M144.4 54.2247V63.0701C144.4 63.2361 144.318 63.3192 144.155 63.3192H138.619C138.453 63.3192 138.37 63.2361 138.37 63.0701V35.5495C138.37 35.4967 138.391 35.446 138.429 35.4083C138.467 35.3706 138.518 35.3488 138.572 35.3478C143.214 35.3399 147.892 35.3359 152.605 35.3359C157.081 35.332 161.747 36.7911 162.617 41.8642C163.423 46.5735 162.324 51.5518 157.164 53.2243C157.003 53.2771 156.964 53.3772 157.045 53.5248L162.36 63.0384C162.376 63.0674 162.384 63.1001 162.384 63.1332C162.383 63.1663 162.375 63.1986 162.358 63.227C162.342 63.2554 162.318 63.2788 162.29 63.295C162.262 63.3112 162.23 63.3195 162.198 63.3192H156.096C155.962 63.3192 155.862 63.2599 155.796 63.1412L150.814 54.2089C150.748 54.0877 150.646 54.027 150.509 54.027H144.598C144.466 54.027 144.4 54.0929 144.4 54.2247ZM144.384 40.8361L144.361 48.4359C144.361 48.5097 144.39 48.5805 144.441 48.633C144.493 48.6856 144.564 48.7156 144.637 48.7167L152.712 48.7443C153.216 48.7462 153.716 48.6657 154.182 48.5075C154.649 48.3493 155.073 48.1165 155.431 47.8224C155.789 47.5282 156.073 47.1785 156.267 46.7933C156.461 46.408 156.562 45.9948 156.563 45.5771L156.571 43.774C156.573 42.9312 156.172 42.1217 155.454 41.5233C154.736 40.925 153.761 40.5868 152.743 40.5831L144.669 40.5554C144.632 40.5548 144.595 40.5617 144.56 40.5756C144.526 40.5895 144.494 40.6101 144.468 40.6362C144.441 40.6623 144.42 40.6934 144.406 40.7278C144.392 40.7621 144.384 40.7989 144.384 40.8361Z" fill="white"/>
<path d="M174.024 57.981H188.718C188.762 57.981 188.804 57.9985 188.835 58.0297C188.866 58.0608 188.884 58.1031 188.884 58.1471V63.153C188.884 63.197 188.866 63.2393 188.835 63.2704C188.804 63.3016 188.762 63.3191 188.718 63.3191H167.796C167.752 63.3191 167.71 63.3016 167.679 63.2704C167.648 63.2393 167.63 63.197 167.63 63.153V35.5098C167.63 35.4658 167.648 35.4235 167.679 35.3924C167.71 35.3612 167.752 35.3438 167.796 35.3438H188.52C188.564 35.3438 188.606 35.3612 188.637 35.3924C188.669 35.4235 188.686 35.4658 188.686 35.5098V40.7134C188.686 40.7575 188.669 40.7997 188.637 40.8309C188.606 40.862 188.564 40.8795 188.52 40.8795H174.024C173.98 40.8795 173.938 40.897 173.907 40.9281C173.876 40.9593 173.858 41.0015 173.858 41.0456V46.1503C173.858 46.1944 173.876 46.2366 173.907 46.2678C173.938 46.2989 173.98 46.3164 174.024 46.3164H188.125C188.169 46.3164 188.211 46.3339 188.242 46.365C188.273 46.3962 188.291 46.4384 188.291 46.4825V51.5872C188.291 51.6313 188.273 51.6735 188.242 51.7047C188.211 51.7358 188.169 51.7533 188.125 51.7533H174.024C173.98 51.7533 173.938 51.7708 173.907 51.8019C173.876 51.8331 173.858 51.8753 173.858 51.9194V57.815C173.858 57.859 173.876 57.9012 173.907 57.9324C173.938 57.9635 173.98 57.981 174.024 57.981Z" fill="white"/>
<path d="M229.413 54.2242V63.0695C229.413 63.2356 229.332 63.3187 229.168 63.3187H223.632C223.466 63.3187 223.383 63.2356 223.383 63.0695V35.541C223.383 35.5161 223.388 35.4914 223.398 35.4684C223.407 35.4454 223.421 35.4245 223.439 35.4068C223.457 35.3892 223.477 35.3752 223.5 35.3657C223.523 35.3561 223.548 35.3512 223.573 35.3512C228.587 35.3328 233.622 35.3367 238.678 35.3631C246.009 35.3987 248.935 40.6972 247.531 47.3322C246.988 49.8997 245.246 51.919 242.304 53.3899C242.135 53.4742 242.097 53.5995 242.189 53.7655L247.389 63.0656C247.403 63.0913 247.411 63.1203 247.41 63.1498C247.41 63.1793 247.402 63.2082 247.388 63.2337C247.373 63.2593 247.352 63.2805 247.326 63.2954C247.301 63.3103 247.272 63.3183 247.242 63.3187H241.114C241.052 63.3185 240.992 63.3024 240.939 63.2718C240.887 63.2413 240.843 63.1974 240.813 63.1447L235.827 54.2084C235.761 54.0871 235.659 54.0265 235.522 54.0265H229.611C229.479 54.0265 229.413 54.0924 229.413 54.2242ZM229.417 40.6695L229.401 48.5935C229.401 48.6045 229.404 48.6153 229.408 48.6253C229.412 48.6354 229.418 48.6446 229.426 48.6523C229.433 48.66 229.443 48.6661 229.453 48.6703C229.463 48.6744 229.474 48.6766 229.484 48.6766L237.97 48.6924C238.442 48.6935 238.91 48.6125 239.346 48.4542C239.783 48.2958 240.18 48.0631 240.514 47.7693C240.849 47.4756 241.114 47.1266 241.296 46.7422C241.477 46.3578 241.571 45.9456 241.572 45.5291V43.7814C241.574 42.9404 241.197 42.1331 240.525 41.5369C239.852 40.9407 238.939 40.6045 237.986 40.6023L229.5 40.5865C229.478 40.5865 229.457 40.5952 229.442 40.6108C229.426 40.6264 229.417 40.6475 229.417 40.6695Z" fill="white"/>
<path d="M66.7966 86.5105C62.8385 87.7047 58.4178 86.3128 57.6705 81.8289C57.0339 78.0013 57.5795 73.8416 61.8658 72.5288C64.291 71.7854 66.5949 72.1663 68.7776 73.6715C68.8064 73.6913 68.8302 73.7175 68.8472 73.748C68.8641 73.7785 68.8737 73.8126 68.8753 73.8475C68.8768 73.8824 68.8702 73.9172 68.856 73.9491C68.8418 73.981 68.8204 74.0091 68.7934 74.0314C68.6708 74.1342 68.5166 74.1223 68.3782 74.0353C66.5462 72.8728 64.61 72.5077 62.5696 72.94C58.2992 73.8455 57.6468 77.8233 58.1885 81.5046C58.9398 86.6094 64.863 87.5742 68.5048 85.0277C68.5455 84.9995 68.596 84.9869 68.6471 84.9921C68.8501 85.0185 68.916 85.1174 68.8448 85.2887C68.7947 85.4073 68.7196 85.5049 68.6194 85.5813C68.0738 85.9978 67.4661 86.3075 66.7966 86.5105Z" fill="white"/>
<path d="M150.764 80.7958C150.755 82.4034 150.109 83.9419 148.966 85.0727C147.823 86.2035 146.278 86.834 144.67 86.8256L142.97 86.8167C142.174 86.8126 141.387 86.6516 140.653 86.3432C139.919 86.0347 139.253 85.5847 138.693 85.0189C138.133 84.4531 137.69 83.7825 137.39 83.0455C137.089 82.3085 136.936 81.5194 136.94 80.7234L136.953 78.2877C136.961 76.6801 137.608 75.1417 138.751 74.0109C139.894 72.88 141.439 72.2495 143.046 72.2579L144.747 72.2668C145.543 72.271 146.33 72.4319 147.064 72.7404C147.798 73.0488 148.464 73.4988 149.023 74.0646C149.583 74.6305 150.026 75.301 150.327 76.038C150.628 76.7751 150.781 77.5641 150.776 78.3601L150.764 80.7958ZM150.171 78.3728C150.175 77.6505 150.037 76.9345 149.764 76.2658C149.491 75.597 149.089 74.9886 148.581 74.4752C148.073 73.9618 147.469 73.5534 146.803 73.2735C146.137 72.9936 145.422 72.8476 144.7 72.8439L143.087 72.8354C141.628 72.8278 140.226 73.3999 139.189 74.426C138.153 75.4521 137.566 76.848 137.558 78.3067L137.545 80.7582C137.541 81.4805 137.68 82.1965 137.953 82.8652C138.226 83.534 138.628 84.1424 139.136 84.6558C139.644 85.1692 140.248 85.5775 140.914 85.8574C141.58 86.1373 142.294 86.2833 143.017 86.2871L144.63 86.2955C146.088 86.3032 147.49 85.731 148.527 84.705C149.564 83.6789 150.151 82.283 150.159 80.8243L150.171 78.3728Z" fill="white"/>
<path d="M236.582 80.7341C236.585 81.5296 236.431 82.3179 236.129 83.0539C235.828 83.7899 235.384 84.4592 234.823 85.0237C234.263 85.5882 233.596 86.0367 232.862 86.3437C232.129 86.6507 231.341 86.8101 230.546 86.8129L228.83 86.8189C228.034 86.8217 227.246 86.6677 226.51 86.3659C225.774 86.064 225.105 85.6201 224.54 85.0596C223.976 84.4991 223.527 83.8328 223.22 83.0989C222.913 82.365 222.754 81.5779 222.751 80.7824L222.742 78.3388C222.74 77.5433 222.894 76.755 223.196 76.019C223.497 75.283 223.941 74.6136 224.502 74.0491C225.062 73.4847 225.729 73.0361 226.462 72.7292C227.196 72.4222 227.984 72.2627 228.779 72.26L230.495 72.2539C231.291 72.2512 232.079 72.4051 232.815 72.707C233.551 73.0088 234.22 73.4527 234.785 74.0132C235.349 74.5738 235.798 75.24 236.105 75.9739C236.412 76.7078 236.571 77.495 236.574 78.2905L236.582 80.7341ZM235.971 78.3493C235.974 76.8906 235.397 75.4906 234.367 74.4573C233.338 73.4241 231.94 72.8421 230.481 72.8396L228.868 72.8368C228.145 72.8355 227.43 72.9765 226.762 73.2518C226.094 73.527 225.487 73.9311 224.976 74.4409C224.464 74.9508 224.058 75.5564 223.78 76.2232C223.503 76.8901 223.359 77.605 223.358 78.3273L223.354 80.7789C223.351 82.2376 223.928 83.6376 224.958 84.6709C225.987 85.7042 227.385 86.2861 228.844 86.2886L230.457 86.2914C231.18 86.2927 231.895 86.1517 232.563 85.8764C233.231 85.6012 233.838 85.1971 234.349 84.6873C234.861 84.1774 235.267 83.5718 235.545 82.905C235.822 82.2381 235.966 81.5232 235.967 80.8009L235.971 78.3493Z" fill="white"/>
<path d="M104.57 82.7928H97.4212C97.2788 82.7928 97.18 82.86 97.1246 82.9944L95.6458 86.6836C95.6367 86.7063 95.6221 86.7264 95.6033 86.742C95.5845 86.7577 95.5621 86.7683 95.5381 86.773C95.5141 86.7778 95.4893 86.7764 95.466 86.769C95.4427 86.7617 95.4216 86.7487 95.4046 86.7311L95.3176 86.648C95.2121 86.54 95.1871 86.4161 95.2425 86.2763L100.727 72.5358C100.745 72.4909 100.772 72.4505 100.808 72.4173C100.843 72.3841 100.885 72.359 100.931 72.3436C100.978 72.3282 101.027 72.3229 101.075 72.3281C101.124 72.3333 101.171 72.3489 101.213 72.3737C101.842 72.7454 106.29 84.8687 106.923 86.4701C106.937 86.5044 106.941 86.542 106.936 86.5786C106.93 86.6153 106.914 86.6496 106.89 86.6778C106.866 86.706 106.834 86.727 106.799 86.7385C106.763 86.75 106.726 86.7515 106.69 86.7429C106.231 86.6401 105.167 83.5836 104.883 82.9905C104.819 82.8587 104.715 82.7928 104.57 82.7928ZM97.5279 81.998C97.5189 82.0207 97.5156 82.0452 97.5182 82.0695C97.5208 82.0938 97.5293 82.117 97.543 82.1373C97.5566 82.1575 97.575 82.1741 97.5964 82.1857C97.6179 82.1973 97.6419 82.2034 97.6663 82.2036H104.412C104.436 82.2034 104.46 82.1973 104.482 82.1857C104.503 82.1741 104.522 82.1575 104.535 82.1373C104.549 82.117 104.558 82.0938 104.56 82.0695C104.563 82.0452 104.559 82.0207 104.55 81.998L101.178 73.5125C101.166 73.4853 101.147 73.4621 101.122 73.4458C101.098 73.4294 101.069 73.4207 101.039 73.4207C101.01 73.4207 100.981 73.4294 100.956 73.4458C100.932 73.4621 100.912 73.4853 100.901 73.5125L97.5279 81.998Z" fill="white"/>
<path d="M71.945 80.3637L71.9371 86.5479C71.9371 86.6004 71.9167 86.6507 71.8803 86.6877C71.844 86.7248 71.7947 86.7456 71.7433 86.7456H71.597C71.4309 86.7456 71.3479 86.6626 71.3479 86.4965V72.6137C71.3479 72.5612 71.3687 72.5109 71.4058 72.4739C71.4429 72.4368 71.4932 72.416 71.5456 72.416C73.4594 72.3975 75.4035 72.412 77.3779 72.4594C83.06 72.5939 82.6685 80.1502 77.6942 80.1344C77.655 80.1343 77.6164 80.1447 77.5824 80.1645C77.5485 80.1843 77.5204 80.2127 77.5011 80.2469C77.4817 80.2811 77.4719 80.3199 77.4725 80.3592C77.4731 80.3984 77.4841 80.4369 77.5045 80.4705L81.0434 86.3819C81.1251 86.5216 81.0921 86.6257 80.9445 86.6942C80.4858 86.9078 77.2395 81.0992 76.8402 80.4309C76.7821 80.3344 76.6994 80.2546 76.6004 80.1992C76.5013 80.1437 76.3891 80.1146 76.2747 80.1146L72.1664 80.1423C72.0214 80.1449 71.9476 80.2187 71.945 80.3637ZM71.9529 73.2621L71.9292 79.3356C71.9292 79.4112 71.9591 79.4836 72.0125 79.537C72.0659 79.5903 72.1383 79.6203 72.2139 79.6203L77.6666 79.6401C78.0815 79.6417 78.4927 79.5665 78.8766 79.4188C79.2606 79.271 79.6098 79.0536 79.9042 78.779C80.1987 78.5043 80.4327 78.1778 80.5929 77.8181C80.7531 77.4583 80.8363 77.0725 80.8378 76.6824V75.9786C80.8408 75.1911 80.5108 74.4347 79.9206 73.8756C79.3304 73.3164 78.5281 73.0005 77.6903 72.9972L72.2376 72.9774C72.1621 72.9774 72.0897 73.0074 72.0363 73.0608C71.9829 73.1142 71.9529 73.1866 71.9529 73.2621Z" fill="white"/>
<path d="M85.2268 86.153H92.8029C92.8693 86.1531 92.9337 86.177 92.9848 86.2202C93.2814 86.4733 93.0441 86.7224 92.7673 86.7263C90.0627 86.7738 87.3594 86.7738 84.6575 86.7263C84.4835 86.7237 84.3965 86.6354 84.3965 86.4614V72.6102C84.3965 72.5584 84.4172 72.5087 84.4542 72.4717C84.4911 72.4348 84.5414 72.4135 84.5942 72.4125C85.4246 72.4125 92.9374 72.2938 93.0797 72.5864C93.1003 72.63 93.1089 72.678 93.1046 72.726C93.1004 72.774 93.0835 72.8205 93.0554 72.8612C93.0274 72.9018 92.9892 72.9353 92.9444 72.9584C92.8995 72.9816 92.8495 72.9938 92.799 72.9937L85.1438 72.9977C85.1236 72.9977 85.1035 73.0015 85.0848 73.0091C85.0661 73.0167 85.0491 73.0277 85.0348 73.0417C85.0204 73.0556 85.0091 73.0722 85.0013 73.0904C84.9936 73.1086 84.9896 73.1282 84.9896 73.1479V78.6283C84.9896 78.7063 85.0203 78.7811 85.0751 78.8366C85.1298 78.8921 85.2042 78.9238 85.2822 78.9249C87.6731 78.9591 90.0983 78.9499 92.5578 78.8972C92.7752 78.8932 92.9097 79.0079 92.9057 79.2293C92.9036 79.3136 92.8684 79.3936 92.8078 79.4521C92.7471 79.5106 92.6658 79.5428 92.5815 79.5417L85.211 79.5022C85.0608 79.5022 84.9856 79.5773 84.9856 79.7276L84.9936 85.9197C84.9962 86.0752 85.074 86.153 85.2268 86.153Z" fill="white"/>
<path d="M119.588 85.3787V72.6109C119.588 72.5585 119.609 72.5082 119.646 72.4711C119.683 72.4341 119.733 72.4132 119.786 72.4132H119.936C120.099 72.4132 120.181 72.4949 120.181 72.6584V86.5492C120.181 86.5885 120.168 86.6269 120.144 86.6584C120.12 86.6899 120.085 86.7127 120.046 86.7231C119.799 86.7917 119.596 86.7152 119.438 86.4938C116.306 82.1206 113.174 77.7618 110.043 73.4176C110.033 73.4024 110.019 73.3908 110.003 73.3847C109.986 73.3785 109.968 73.3781 109.951 73.3836C109.934 73.3891 109.919 73.4001 109.909 73.4149C109.9 73.4296 109.895 73.4473 109.896 73.465C109.899 77.9358 109.877 82.2313 109.829 86.3515C109.829 86.536 109.73 86.6665 109.533 86.7429C109.507 86.7525 109.48 86.7559 109.454 86.7527C109.427 86.7496 109.402 86.74 109.379 86.7249C109.357 86.7097 109.339 86.6894 109.327 86.6657C109.314 86.642 109.307 86.6156 109.307 86.5887V72.5358C109.307 72.4666 109.33 72.4009 109.373 72.3483C109.416 72.2957 109.477 72.2588 109.547 72.243C109.616 72.2272 109.691 72.2332 109.76 72.2603C109.829 72.2873 109.889 72.3339 109.932 72.3934L119.374 85.446C119.517 85.6437 119.588 85.6213 119.588 85.3787Z" fill="white"/>
<path d="M135.306 79.4881C135.096 87.0602 130.288 87.084 124.171 86.7004C124.015 86.6925 123.938 86.6108 123.938 86.4553V72.7226C123.938 72.5908 124.003 72.5197 124.135 72.5091C129.979 71.999 135.515 71.8923 135.306 79.4881ZM124.519 73.3395L124.479 85.7712C124.479 85.8733 124.519 85.9713 124.591 86.0438C124.663 86.1164 124.761 86.1577 124.863 86.1587L129.374 86.1745C130.061 86.1772 130.741 86.0475 131.376 85.7929C132.011 85.5384 132.588 85.1639 133.075 84.6909C133.562 84.218 133.949 83.6558 134.214 83.0365C134.478 82.4171 134.616 81.7529 134.618 81.0816L134.625 78.0923C134.63 76.7382 134.084 75.4377 133.108 74.4768C132.132 73.5159 130.806 72.9731 129.422 72.9678L124.91 72.952C124.859 72.9515 124.808 72.9611 124.761 72.9803C124.713 72.9996 124.67 73.028 124.634 73.0641C124.597 73.1001 124.568 73.143 124.549 73.1903C124.529 73.2375 124.519 73.2883 124.519 73.3395Z" fill="white"/>
<path d="M158.931 79.5572V86.548C158.931 86.6005 158.91 86.6508 158.873 86.6878C158.836 86.7249 158.786 86.7458 158.734 86.7458H158.587C158.421 86.7458 158.338 86.6627 158.338 86.4966V72.6098C158.338 72.5574 158.359 72.5071 158.396 72.47C158.433 72.4329 158.483 72.4121 158.536 72.4121H166.646C166.672 72.4121 166.698 72.4174 166.722 72.4276C166.746 72.4378 166.768 72.4528 166.786 72.4716C166.804 72.4905 166.818 72.5128 166.827 72.5372C166.836 72.5616 166.841 72.5877 166.839 72.6138C166.839 72.6454 166.839 72.6784 166.839 72.7126C166.845 72.9051 166.752 73.0013 166.563 73.0013H159.145C159.088 73.0013 159.034 73.0238 158.994 73.0638C158.954 73.1039 158.931 73.1582 158.931 73.2148V78.5884C158.931 78.6807 158.968 78.7692 159.033 78.8345C159.098 78.8997 159.187 78.9364 159.279 78.9364H166.436C166.472 78.936 166.507 78.9447 166.539 78.9616C166.571 78.9785 166.598 79.0031 166.617 79.0332C166.637 79.0633 166.65 79.098 166.653 79.1342C166.657 79.1705 166.652 79.2071 166.638 79.2409C166.428 79.7549 160.398 79.4979 159.01 79.4821C159 79.4815 158.99 79.4831 158.98 79.4866C158.971 79.4901 158.962 79.4956 158.955 79.5026C158.947 79.5096 158.941 79.5181 158.937 79.5275C158.933 79.5369 158.931 79.547 158.931 79.5572Z" fill="white"/>
<path d="M172.478 86.7418C170.465 86.469 169.03 84.6896 168.987 82.6612C168.918 79.3081 168.897 75.9563 168.923 72.6059C168.924 72.5541 168.946 72.5048 168.983 72.4686C169.02 72.4324 169.069 72.4121 169.121 72.4121H169.279C169.432 72.4121 169.509 72.4886 169.509 72.6414C169.503 75.8258 169.514 79.0089 169.54 82.1906C169.559 84.4603 170.643 85.8007 172.794 86.2119C174.858 86.6074 177.939 86.3899 178.963 84.2072C179.232 83.6352 179.371 82.5887 179.382 81.0677C179.4 78.2497 179.403 75.4331 179.39 72.6177C179.39 72.4806 179.46 72.4121 179.599 72.4121H179.758C179.908 72.4121 179.983 72.4872 179.983 72.6375C179.988 75.7243 180 78.8099 180.019 81.8941C180.046 86.5995 176.234 87.2479 172.478 86.7418Z" fill="white"/>
<path d="M187.8 73.0131L182.644 72.9934C182.601 72.993 182.559 72.9801 182.523 72.9561C182.487 72.9322 182.459 72.8984 182.443 72.859C182.426 72.8195 182.422 72.7763 182.43 72.7347C182.439 72.6932 182.459 72.6552 182.49 72.6256L182.593 72.5268C182.628 72.4905 182.67 72.4617 182.717 72.442C182.764 72.4223 182.814 72.4121 182.866 72.4121H194.028C194.11 72.4121 194.164 72.449 194.19 72.5228C194.201 72.5518 194.214 72.5861 194.23 72.6256C194.247 72.6651 194.253 72.7082 194.25 72.751C194.246 72.7938 194.232 72.835 194.208 72.871C194.185 72.907 194.153 72.9366 194.115 72.9573C194.078 72.9779 194.035 72.989 193.992 72.9894C192.305 73.021 190.614 73.0171 188.919 72.9775C188.761 72.9723 188.682 73.0487 188.682 73.2069C188.669 77.4589 188.702 81.7069 188.781 85.951C188.786 86.3016 188.66 86.5467 188.401 86.6864C188.359 86.7089 188.312 86.7201 188.265 86.7191C188.217 86.718 188.171 86.7048 188.13 86.6805C188.089 86.6563 188.055 86.6219 188.031 86.5807C188.007 86.5395 187.994 86.4928 187.994 86.4452V73.2069C187.994 73.0777 187.929 73.0131 187.8 73.0131Z" fill="white"/>
<path d="M200.157 86.7418C198.144 86.469 196.709 84.6896 196.666 82.6612C196.597 79.3081 196.576 75.9563 196.602 72.6059C196.603 72.5541 196.625 72.5048 196.662 72.4686C196.699 72.4324 196.748 72.4121 196.8 72.4121H196.958C197.111 72.4121 197.187 72.4886 197.187 72.6414C197.182 75.8258 197.199 79.0102 197.239 82.1946C197.265 84.5802 198.465 85.9312 200.837 86.2475C205.254 86.8407 207.037 85.346 207.061 80.9609C207.079 78.1772 207.083 75.3961 207.073 72.6177C207.07 72.4806 207.139 72.4121 207.278 72.4121H207.437C207.587 72.4121 207.662 72.4872 207.662 72.6375C207.667 75.7243 207.679 78.8099 207.698 81.8941C207.725 86.5995 203.913 87.2479 200.157 86.7418Z" fill="white"/>
<path d="M217.065 80.4404L220.647 86.419C220.669 86.4563 220.68 86.4994 220.677 86.5427C220.674 86.586 220.658 86.6274 220.631 86.6613C220.604 86.6952 220.567 86.7201 220.525 86.7326C220.484 86.7451 220.439 86.7447 220.398 86.7314C219.845 86.5574 216.903 81.251 216.389 80.4087C216.332 80.3169 216.252 80.2413 216.157 80.1894C216.062 80.1374 215.955 80.1108 215.847 80.1122L211.762 80.1596C211.698 80.1596 211.637 80.1851 211.592 80.2303C211.547 80.2755 211.521 80.3369 211.521 80.4008V86.3715C211.521 86.4849 211.476 86.5745 211.387 86.6404L211.252 86.7393C211.222 86.7609 211.186 86.7738 211.148 86.7764C211.111 86.7791 211.073 86.7715 211.04 86.7543C211.006 86.7372 210.978 86.7113 210.959 86.6794C210.939 86.6475 210.928 86.6107 210.928 86.5732V72.6192C210.928 72.5674 210.948 72.5177 210.984 72.4807C211.021 72.4438 211.07 72.4225 211.122 72.4215C214.55 72.3661 222.11 71.1205 220.94 77.3127C220.605 79.0868 219.357 80.0463 217.195 80.1913C217.167 80.1924 217.14 80.2009 217.117 80.216C217.093 80.2311 217.074 80.2522 217.06 80.2772C217.047 80.3023 217.041 80.3305 217.042 80.3591C217.042 80.3877 217.05 80.4157 217.065 80.4404ZM211.533 73.2518L211.509 79.349C211.509 79.4214 211.538 79.4908 211.589 79.542C211.64 79.5931 211.71 79.6219 211.782 79.6219L217.239 79.6417C217.655 79.6433 218.067 79.5679 218.452 79.4197C218.837 79.2716 219.187 79.0536 219.482 78.7782C219.777 78.5028 220.012 78.1754 220.172 77.8147C220.333 77.454 220.416 77.0671 220.418 76.6761V75.9881C220.421 75.1985 220.09 74.44 219.498 73.8794C218.907 73.3188 218.102 73.002 217.262 72.9987L211.806 72.979C211.733 72.979 211.664 73.0077 211.613 73.0589C211.562 73.1101 211.533 73.1794 211.533 73.2518Z" fill="white"/>
</svg>
