<svg width="223" height="42" viewBox="0 0 223 42" fill="none" xmlns="http://www.w3.org/2000/svg">
<path d="M179.492 39.1966C175.925 40.8643 172.947 41.4466 168.777 41.5211C163.677 41.6174 158.58 41.6345 153.486 41.5724C148.856 41.5211 147.268 38.6842 147.249 34.4359C147.219 27.2777 147.225 20.1225 147.268 12.9705C147.309 6.44429 145.859 0.770505 154.637 0.728581C159.086 0.709948 163.534 0.702184 167.98 0.70529C172.965 0.709948 178.87 2.54997 181.503 6.90546C184.012 11.0606 182.852 16.6366 179.045 19.8555C178.873 20.0014 178.889 20.121 179.091 20.2142C181.08 21.1272 182.637 22.5278 183.763 24.4159C183.864 24.5898 183.961 24.5867 184.053 24.4066C187.29 17.972 190.549 11.5544 193.829 5.15394C194.636 3.57634 195.437 2.46146 196.232 1.8093C200.098 -1.34901 205.645 0.150955 207.895 4.58564C212.63 13.9084 217.353 23.2389 222.063 32.5772C226.136 40.6454 215.844 45.7974 211.974 38.0507C211.467 37.0352 210.298 36.602 209.129 36.5973C203.888 36.5942 198.648 36.5911 193.411 36.588C190.028 36.588 190.557 38.0041 188.812 39.942C186.345 42.681 181.963 42.4854 179.878 39.3038C179.78 39.1547 179.651 39.119 179.492 39.1966Z" fill="#D9D9D9"/>
<path d="M4.69458 9.07949C7.26427 9.06603 9.33806 7.26987 9.32653 5.06765C9.315 2.86543 7.22251 1.09109 4.65283 1.10454C2.08314 1.118 0.00934764 2.91416 0.0208785 5.11638C0.0324094 7.3186 2.1249 9.09294 4.69458 9.07949Z" fill="#D9D9D9"/>
<path d="M125.343 19.3409C120.929 18.9486 120.661 13.0733 125.379 12.1963C125.522 12.1717 125.595 12.084 125.598 11.9333C125.602 10.5025 125.457 8.77175 125.816 7.52561C126.663 4.6041 130.066 3.56564 132.287 5.53178C134.135 7.17023 133.611 9.79174 133.693 12.0486C133.699 12.2117 133.784 12.2948 133.948 12.2979C135.577 12.3163 137.598 12.0348 138.949 12.764C141.029 13.8948 141.22 17.3332 139.163 18.6763C137.811 19.5624 135.586 19.387 133.925 19.3317C133.764 19.3255 133.684 19.404 133.684 19.567C133.663 23.7978 133.667 28.0193 133.698 32.2316C133.711 34.3408 135.245 34.3315 137.074 34.4377C141.11 34.6731 141.934 39.8884 137.748 41.1899C131.673 43.0776 125.807 41.1992 125.707 33.7315C125.643 29.0208 125.599 24.3085 125.575 19.5947C125.575 19.4378 125.498 19.3532 125.343 19.3409Z" fill="#D9D9D9"/>
<path d="M21.6789 15.5907C25.8972 9.37568 35.5607 9.47997 38.5429 16.8517C39.033 18.0653 39.3164 19.8177 39.393 22.109C39.5737 27.5955 39.5952 32.6665 39.4573 37.3218C39.2735 43.5083 31.2964 43.5273 31.3378 36.5111C31.3623 32.3868 31.3362 28.264 31.2597 24.1428C31.1218 16.8706 21.6191 17.0697 21.3848 24.3277C21.3174 26.4957 21.3036 30.6074 21.3434 36.6628C21.394 43.6884 13.2285 43.1859 13.2055 37.4071C13.1779 30.274 13.1749 23.1378 13.1963 15.9984C13.2147 10.1674 20.8058 9.66485 21.3756 15.5101C21.3782 15.5456 21.3916 15.5794 21.4137 15.6067C21.4359 15.634 21.4658 15.6535 21.4993 15.6623C21.5327 15.6712 21.568 15.6691 21.6002 15.6562C21.6324 15.6434 21.6599 15.6205 21.6789 15.5907Z" fill="#D9D9D9"/>
<path d="M77.2675 29.7491C78.6903 34.2793 81.7851 35.9535 86.5519 34.7715C88.2403 34.3577 89.8883 32.613 91.4642 32.4813C93.5084 32.312 95.1743 34.6163 94.6475 36.5868C93.747 39.9586 87.9432 41.661 85.0165 41.8397C71.3421 42.672 64.7909 27.2002 72.4723 16.4781C75.9167 11.6672 82.4635 9.96956 87.7721 11.8836C93.2472 13.854 96.5791 19.3091 96.6692 25.3238C96.7142 28.2959 94.8276 29.2788 92.1756 29.3258C88.7416 29.3885 85.3046 29.4293 81.8647 29.4481C80.8561 29.4528 78.9515 29.1941 77.4341 29.4622C77.272 29.4904 77.2165 29.586 77.2675 29.7491ZM77.3351 24.1576L88.9067 24.1388C88.9144 24.1388 88.922 24.1372 88.9291 24.1341C88.9362 24.131 88.9427 24.1265 88.9481 24.1209C88.9535 24.1152 88.9578 24.1084 88.9608 24.101C88.9637 24.0936 88.9652 24.0857 88.9652 24.0776V24.0588C88.9628 22.4312 88.3462 20.8712 87.251 19.7221C86.1559 18.5729 84.6718 17.9287 83.1254 17.9312H83.0984C82.3327 17.9324 81.5747 18.0924 80.8677 18.4019C80.1607 18.7115 79.5186 19.1646 78.9779 19.7353C78.4373 20.3061 78.0088 20.9833 77.7169 21.7284C77.425 22.4734 77.2753 23.2717 77.2765 24.0776V24.0964C77.2765 24.1126 77.2827 24.1282 77.2937 24.1397C77.3047 24.1511 77.3195 24.1576 77.3351 24.1576Z" fill="#D9D9D9"/>
<path d="M99.6905 17.7454C100.617 13.7925 105.081 11.3866 108.863 11.1588C113.141 10.8962 116.86 11.7694 120.021 13.7782C123.167 15.7808 120.751 21.219 116.311 19.43C114.177 18.5758 107.645 15.6432 106.924 19.7384C106.895 19.8903 106.919 20.0342 106.996 20.1702C108.046 22.1253 113.976 23.7625 116.173 24.5929C120.26 26.1447 122.418 29.4806 121.845 33.8559C120.432 44.6136 106.046 42.7344 99.5377 38.6392C95.7323 36.2428 98.6401 30.6765 102.837 32.8546C105.348 34.1596 111.154 36.8454 113.728 34.6246C114.307 34.1279 114.482 33.4826 114.253 32.6885C113.747 30.9185 109.044 29.9362 107.454 29.3762C101.791 27.3879 98.048 24.7685 99.6905 17.7454Z" fill="#D9D9D9"/>
<path d="M4.82056 11.7281L4.57861 11.7277C2.37123 11.7238 0.578664 13.5101 0.574811 15.7175L0.536676 37.5675C0.532823 39.7749 2.31914 41.5674 4.52653 41.5713L4.76848 41.5717C6.97586 41.5755 8.76843 39.7892 8.77228 37.5818L8.81041 15.7319C8.81427 13.5245 7.02795 11.732 4.82056 11.7281Z" fill="#D9D9D9"/>
<path d="M54.8488 31.4048C54.8579 31.4311 54.8753 31.454 54.8985 31.4702C54.9218 31.4863 54.9497 31.4951 54.9783 31.4951C55.0069 31.4951 55.0348 31.4863 55.058 31.4702C55.0813 31.454 55.0987 31.4311 55.1077 31.4048C57.2041 25.8413 59.324 20.2945 61.4675 14.7645C62.9551 10.9268 68.9429 11.5877 69.2019 15.7991C69.2458 16.5405 68.9994 17.5249 68.4628 18.7525C65.6917 25.106 62.8892 31.4474 60.0553 37.7766C57.6309 43.2003 52.2691 43.2596 49.8166 37.8267C47.0078 31.5978 44.2367 25.3552 41.5032 19.0989C40.9101 17.7407 40.6245 16.6878 40.6464 15.9404C40.7123 13.47 43.1555 11.8201 45.5704 12.2941C47.3028 12.6314 48.1266 13.6979 48.7621 15.3478C50.8208 20.7047 52.8497 26.0571 54.8488 31.4048Z" fill="#D9D9D9"/>
</svg>
