<svg width="156" height="76" viewBox="0 0 156 76" fill="none" xmlns="http://www.w3.org/2000/svg">
<path d="M11.906 26.8411H12.0044C14.2676 22.6758 18.2035 20.8906 22.8282 20.8906H25.0912V32.3949C23.4185 31.5025 21.8441 31.3042 20.073 31.3042C13.4804 31.3042 11.8076 35.6678 11.8076 41.5191V55.1063H0V21.2873H11.906V26.8411Z" fill="#D9D9D9"/>
<path d="M43.1956 21.2891H31.2896V55.1079H43.1956V21.2891Z" fill="#D9D9D9"/>
<path d="M64.0557 25.1561H64.1541C66.3187 21.7841 70.353 20.1973 74.2889 20.1973C84.3256 20.1973 91.2133 28.6273 91.2133 38.3463C91.2133 48.0656 84.3256 56.2971 74.3874 56.2971C70.5499 56.2971 66.5156 54.9088 63.9572 51.9335V70.4794L52.1497 75.4381V21.2882H64.0557V25.1561ZM63.6621 38.2471C63.6621 42.5118 66.5156 45.7846 71.337 45.7846C76.1585 45.7846 79.012 42.5118 79.012 38.2471C79.012 34.0819 76.1585 30.6107 71.337 30.6107C66.4173 30.6107 63.6621 34.0819 63.6621 38.2471Z" fill="#D9D9D9"/>
<path d="M109.416 21.2891H97.5103V55.1079H109.416V21.2891Z" fill="#D9D9D9"/>
<path d="M155.762 38.2471C155.762 49.7517 146.316 56.1979 135.59 56.1979C124.865 56.1979 115.419 49.7517 115.419 38.2471C115.419 26.7428 124.865 20.1973 135.59 20.1973C146.414 20.1973 155.762 26.7428 155.762 38.2471ZM128.014 38.2471C128.014 42.5118 130.867 45.7846 135.689 45.7846C140.51 45.7846 143.364 42.5118 143.364 38.2471C143.364 34.0819 140.51 30.6107 135.689 30.6107C130.769 30.6107 128.014 34.0819 128.014 38.2471Z" fill="#D9D9D9"/>
<path d="M43.1958 11.9666L31.585 16.6279V5.5202L43.1958 0.759766V11.9666Z" fill="#D9D9D9"/>
<path d="M109.319 11.9666L97.708 16.6279V5.5202L109.319 0.759766V11.9666Z" fill="#D9D9D9"/>
</svg>
