<svg width="191" height="94" viewBox="0 0 191 94" fill="none" xmlns="http://www.w3.org/2000/svg">
<g clip-path="url(#clip0_439_814)">
<path d="M109.605 30.3148L106.479 30.3109C106.408 30.3109 106.349 30.2527 106.349 30.1816V27.0152C106.349 26.9441 106.408 26.886 106.479 26.886H109.613C109.684 26.886 109.742 26.8278 109.742 26.7567V20.7445C109.742 20.6734 109.801 20.6152 109.872 20.6152H113.039C113.11 20.6152 113.168 20.6734 113.168 20.7445V26.7567C113.168 26.8278 113.226 26.886 113.297 26.886H117.047C117.118 26.886 117.176 26.9441 117.176 27.0152V30.1829C117.175 30.254 117.117 30.3122 117.046 30.3122H113.309C113.238 30.3122 113.181 30.3691 113.179 30.4402C113.157 33.6389 113.157 36.8325 113.182 40.0221C113.194 41.5827 113.519 42.8123 115.273 42.9455C115.849 42.9894 116.518 42.9467 117.282 42.8175C117.352 42.8058 117.419 42.8524 117.432 42.9235C117.432 42.9312 117.433 42.939 117.433 42.9455V45.8701C117.433 45.9308 117.392 45.9825 117.334 45.9968C113.107 46.9716 109.741 45.0491 109.744 40.4462C109.746 37.1117 109.744 33.7786 109.735 30.4441C109.735 30.373 109.676 30.3148 109.605 30.3148Z" fill="#D9D9D9"/>
<path d="M123.785 28.0948C124.844 27.2195 126.014 26.7011 127.295 26.5407C131.757 25.9822 135.605 29.0542 135.651 33.5846C135.668 35.1594 135.669 39.2619 135.655 45.892C135.655 45.9632 135.597 46.0213 135.526 46.0213H132.365C132.294 46.0213 132.236 45.9632 132.236 45.892C132.232 42.2705 132.23 38.6503 132.227 35.0314C132.224 32.5878 131.294 30.4325 128.679 29.9799C127.947 29.8532 127.247 29.8985 126.577 30.1144C124.4 30.8165 123.577 32.677 123.576 34.8271C123.573 38.5159 123.572 42.2033 123.572 45.892C123.572 45.9632 123.514 46.0213 123.443 46.0213H120.212C120.141 46.0213 120.083 45.9632 120.083 45.892V20.7445C120.083 20.6734 120.141 20.6152 120.212 20.6152H123.444C123.515 20.6152 123.573 20.6734 123.573 20.7445V27.9953C123.573 28.1776 123.644 28.2112 123.785 28.0948Z" fill="#D9D9D9"/>
<path d="M169.856 35.2176C169.856 35.3844 169.915 35.409 170.033 35.29L178.317 26.9247C178.342 26.9002 178.374 26.886 178.409 26.886H182.602C182.806 26.886 182.837 26.9596 182.694 27.1058L175.361 34.6112C175.317 34.6565 175.312 34.7263 175.348 34.7767L183.219 45.8171C183.316 45.9528 183.281 46.0213 183.114 46.0213H179.257C179.215 46.02 179.177 46.0007 179.152 45.967L172.906 37.338C172.865 37.2798 172.784 37.2669 172.725 37.3083C172.719 37.3122 172.714 37.3173 172.709 37.3238L169.884 40.2458C169.861 40.2704 169.848 40.3027 169.848 40.3363V45.892C169.848 45.9632 169.79 46.0213 169.719 46.0213H166.487C166.416 46.0213 166.358 45.9632 166.358 45.892V20.7445C166.358 20.6734 166.416 20.6152 166.487 20.6152H169.728C169.799 20.6152 169.857 20.6734 169.857 20.7445L169.814 24.7423C169.814 24.7552 169.818 24.7668 169.826 24.7759C169.839 24.7927 169.851 24.8069 169.851 24.8302C169.844 28.3043 169.845 31.7668 169.856 35.2176Z" fill="#D9D9D9"/>
<path d="M142.895 21.002H139.539C139.502 21.002 139.472 21.0321 139.472 21.0692V24.361C139.472 24.3981 139.502 24.4282 139.539 24.4282H142.895C142.932 24.4282 142.962 24.3981 142.962 24.361V21.0692C142.962 21.0321 142.932 21.002 142.895 21.002Z" fill="#D9D9D9"/>
<path d="M150.67 28.0941C151.749 27.2007 152.916 26.6809 154.171 26.5322C158.928 25.9698 162.505 29.2022 162.51 33.902C162.514 37.8984 162.514 41.8949 162.51 45.8913C162.51 45.9624 162.452 46.0206 162.381 46.0206H159.223C159.152 46.0206 159.094 45.9624 159.094 45.8913C159.085 42.1069 159.083 38.3251 159.09 34.5471C159.099 28.3501 150.467 28.3372 150.462 34.6092C150.458 38.3703 150.458 42.1302 150.46 45.8913C150.46 45.9624 150.402 46.0206 150.331 46.0206H147.098C147.027 46.0206 146.969 45.9624 146.969 45.8913V27.0145C146.969 26.9434 147.027 26.8852 147.098 26.8852H150.33C150.401 26.8852 150.459 26.9434 150.459 27.0145V27.9946C150.459 28.1769 150.529 28.2105 150.67 28.0941Z" fill="#D9D9D9"/>
<path d="M142.906 26.8848H139.528C139.497 26.8848 139.472 26.9097 139.472 26.9404V45.9646C139.472 45.9953 139.497 46.0201 139.528 46.0201H142.906C142.937 46.0201 142.962 45.9953 142.962 45.9646V26.9404C142.962 26.9097 142.937 26.8848 142.906 26.8848Z" fill="#D9D9D9"/>
<path d="M110.597 61.2621C110.658 61.2246 110.676 61.1444 110.638 61.0837C110.634 61.0772 110.629 61.0707 110.624 61.0656C109.963 60.335 109.378 59.5334 108.866 58.662C105.646 53.1864 110.259 46.8252 116.455 48.7788C120.185 49.9554 121.756 54.2027 120.126 57.6044C119.376 59.1714 117.853 60.5807 116.362 61.5724C116.302 61.6125 116.287 61.6926 116.326 61.7521C116.329 61.7586 116.335 61.7637 116.34 61.7689L120.37 66.0007C120.421 66.0524 120.503 66.0537 120.555 66.0046C120.561 65.9981 120.567 65.9916 120.572 65.9839L123.443 61.7211C123.467 61.6849 123.507 61.6642 123.55 61.6642H127.407C127.566 61.6642 127.602 61.7314 127.516 61.8646L123.048 68.6641C123.015 68.7145 123.021 68.7818 123.063 68.8244L128.835 74.8922C128.974 75.0383 128.943 75.1107 128.742 75.1107H124.218C124.183 75.1107 124.15 75.0964 124.125 75.0706L120.987 71.8227C120.938 71.771 120.857 71.7697 120.806 71.8189C120.803 71.8214 120.799 71.8253 120.797 71.8279C120.254 72.4563 119.658 73.0303 119.01 73.5488C117.189 75.0046 115.08 75.6563 112.683 75.5024C105.614 75.0473 103.622 67.5793 108.407 62.9636C109.073 62.3223 109.803 61.7547 110.597 61.2621ZM117.211 54.9539C117.481 51.0608 111.546 50.6833 111.425 54.7017C111.378 56.2649 112.713 58.0013 113.836 59.1068C113.88 59.1494 113.947 59.1559 113.998 59.1223C115.466 58.1629 117.078 56.8816 117.211 54.9539ZM110.665 71.2151C112.14 72.4304 114.61 72.3748 116.163 71.3495C117.02 70.7845 117.741 70.0786 118.329 69.233C118.364 69.1813 118.359 69.1128 118.316 69.0688L113.181 63.7678C113.139 63.7251 113.073 63.7161 113.022 63.7471C111.681 64.5422 110.252 65.8222 109.789 67.2884C109.377 68.5956 109.525 70.2751 110.665 71.2151Z" fill="#D9D9D9"/>
<path d="M147.799 57.7576C147.935 57.8546 148.003 57.8197 148.003 57.6529V49.7699C148.003 49.6988 148.061 49.6406 148.132 49.6406H151.299C151.37 49.6406 151.429 49.6988 151.429 49.7699V74.9821C151.429 75.0532 151.37 75.1114 151.299 75.1114H148.132C148.061 75.1114 148.003 75.0532 148.003 74.9821V73.3181C148.002 73.1203 147.93 73.0879 147.785 73.2237C146.861 74.0887 145.811 74.7106 144.636 75.0907C143.864 75.3402 143.016 75.4824 142.095 75.5174C132.425 75.8807 129.093 63.3315 135.859 57.5999C138.83 55.0826 143.778 54.8292 146.938 57.137C147.229 57.3491 147.516 57.556 147.799 57.7576ZM141.947 72.1092C145.29 72.1027 147.994 69.1587 147.988 65.532C147.981 61.9054 145.267 58.9704 141.924 58.9756C138.582 58.9821 135.877 61.9261 135.884 65.5527C135.89 69.1794 138.605 72.1144 141.947 72.1092Z" fill="#D9D9D9"/>
<path d="M158.229 66.9106C158.569 71.688 164.535 73.992 168 70.7363C168.575 70.1959 169.062 69.574 169.459 68.8719C169.494 68.8112 169.57 68.7892 169.632 68.8215L172.335 70.2657C172.394 70.2981 172.42 70.3692 172.393 70.4312C171.818 71.7694 170.93 72.871 169.729 73.7334C166.137 76.3154 161.243 76.1201 157.897 73.2149C155.04 70.7351 154.112 66.7658 154.828 63.1533C155.783 58.3242 159.94 55.0738 164.906 55.6155C170.377 56.2129 173.429 61.5035 172.497 66.6662C172.485 66.727 172.432 66.7722 172.37 66.7722H158.358C158.287 66.7722 158.229 66.8304 158.229 66.9015C158.229 66.9041 158.229 66.908 158.229 66.9106ZM167.368 60.2028C164.47 57.6609 160.272 58.8323 158.693 62.2069C158.512 62.5948 158.394 62.9684 158.339 63.3266C158.328 63.3977 158.376 63.4636 158.447 63.474C158.454 63.474 158.46 63.4752 158.467 63.4752H168.894C168.965 63.4752 169.023 63.4171 169.023 63.346C169.023 63.3408 169.023 63.3343 169.023 63.3291C168.857 62.066 168.306 61.0239 167.369 60.2028H167.368Z" fill="#D9D9D9"/>
<path d="M181.874 69.7243C181.932 69.8264 181.983 69.8226 182.024 69.7127L187.171 56.0606C187.191 56.0102 187.239 55.9766 187.293 55.9766H190.871C190.942 55.9766 191 56.0347 191 56.1071C191 56.1227 190.997 56.1395 190.991 56.1537L183.562 75.0305C183.543 75.0796 183.495 75.1119 183.442 75.1119H180.443C180.39 75.1119 180.343 75.0783 180.323 75.0292L172.966 56.1524C172.94 56.0865 172.972 56.0128 173.038 55.9856C173.054 55.9791 173.069 55.9766 173.086 55.9766H176.622C176.677 55.9766 176.726 56.0102 176.744 56.0606C178.457 60.5949 180.158 65.1318 181.85 69.6713C181.857 69.6907 181.865 69.7075 181.874 69.7243Z" fill="#D9D9D9"/>
<path d="M48.3184 16.5C48.3184 16.5 48.3243 16.5 48.3279 16.5012C48.3243 16.5012 48.3219 16.5 48.3184 16.5Z" fill="#D9D9D9"/>
<path d="M48.2977 16.511C48.2977 16.511 48.3037 16.5051 48.3072 16.5039C48.3049 16.5039 48.3025 16.5039 48.3013 16.5063C48.3001 16.5075 48.2989 16.5098 48.2977 16.511Z" fill="#D9D9D9"/>
<path d="M48.3081 16.5025C48.3081 16.5025 48.3122 16.5 48.3138 16.5C48.3114 16.5 48.3097 16.5016 48.3081 16.5025Z" fill="#D9D9D9"/>
<path d="M48.3275 16.502C48.3275 16.502 48.3348 16.503 48.3379 16.5061C48.3369 16.5051 48.3348 16.504 48.3337 16.503C48.3317 16.502 48.3296 16.503 48.3286 16.503L48.3275 16.502Z" fill="#D9D9D9"/>
<path d="M90.4221 51.2429C90.4014 51.208 90.3975 51.1653 90.4117 51.1278C90.541 50.8007 90.6715 50.4736 90.8047 50.1491C92.7914 45.3213 91.8892 39.6698 88.5039 35.6889C88.4754 35.6553 88.4664 35.6113 88.478 35.5687C90.6315 28.1847 86.8093 20.8797 79.7194 18.127C79.6638 18.105 79.6302 18.0482 79.638 17.9887C80.4769 11.6895 77.1665 5.75626 71.4416 3.07084C70.8289 2.78251 69.8595 2.39463 68.5333 1.90591C61.424 -0.753654 54.4996 -0.965695 48.2641 3.43932C48.016 3.61516 47.7678 3.79746 47.5222 3.98753C47.4744 4.02502 47.4072 4.02373 47.3606 3.98494L46.8307 3.54793C45.3804 2.31706 43.7685 1.40037 41.9951 0.799156C36.6114 -1.02517 32.5734 2.10372 28.4409 4.97145C26.7282 6.10018 25.0298 7.2483 23.3442 8.4184C21.3162 9.8264 20.021 11.6598 19.5401 14.1047C19.1511 16.0868 19.7198 18.1348 18.983 19.9526L18.1571 21.2611C16.9123 22.5579 15.0923 22.8682 13.5826 23.7448C11.4795 24.9666 10.0952 26.7922 9.43205 29.2191C9.28728 29.7518 9.18905 30.5547 9.13734 31.6265C9.06754 33.0849 8.44968 34.2447 7.28376 35.1071C6.2484 35.8725 4.87566 36.3005 3.85968 37.0103C1.76956 38.47 0.524793 40.4521 0.126674 42.9552C0.041363 43.493 0 44.3528 0 45.5359C0.00258519 51.3657 0.00258519 57.1942 0 63.0215C0 64.1696 0.0465334 65.0281 0.142185 65.5983C0.601056 68.3277 2.0061 70.3951 4.35475 71.8005C4.79552 72.0642 5.57366 72.4301 6.69176 72.8995C8.19633 73.5304 9.70091 74.164 11.2068 74.8001C12.2163 75.2268 12.997 75.859 13.5464 76.6955C14.0117 77.4571 14.2431 78.2871 14.2405 79.1831C14.2315 82.25 15.6727 85.0117 18.2385 86.6912C18.7168 87.0054 19.4923 87.3777 20.5652 87.8083C24.262 89.2939 27.9575 90.782 31.653 92.2728C33.2933 92.9347 34.9414 93.5993 36.7109 93.8217C39.0673 94.1204 41.447 93.845 43.6018 93.0227C46.0693 92.0814 48.2422 90.4239 49.7442 88.0888L49.9445 88.0643C49.9445 88.0643 49.9562 88.0733 49.96 88.0785C51.0574 89.5796 52.3914 90.8273 53.9619 91.8228C61.2508 96.3145 70.3274 93.5967 74.2117 86.0615C74.2285 86.0292 74.2595 86.0046 74.2957 85.9956C81.0469 84.2928 85.3538 78.2936 85.1263 71.3531C85.125 71.3053 85.1496 71.26 85.1922 71.2368C92.4398 67.2093 94.7316 58.3178 90.4221 51.2429ZM88.3488 59.1841C88.2169 63.0693 85.845 66.3353 82.3459 67.9307C80.8931 68.5927 80.5997 69.2961 80.8091 70.8657C81.5264 76.2469 77.9292 81.0256 72.6463 82.0327C70.7617 82.3922 70.8987 83.5028 70.0715 84.8539C66.809 90.1808 59.9104 91.4362 55.0386 87.4269C54.93 87.3325 54.8241 87.2368 54.7206 87.1398C49.3835 82.1491 51.0561 73.5304 57.3795 70.7286C57.492 70.6795 57.6044 70.6317 57.7195 70.5851C58.3089 70.3498 58.9358 70.1623 59.6002 70.0331C60.1172 69.9322 60.4804 69.8249 60.6885 69.7111C62.2267 68.8759 62.1375 66.6365 60.4985 65.95C59.9195 65.7069 59.2034 65.7896 58.5855 65.9267C58.5415 65.9358 58.4989 65.9474 58.4562 65.9564C58.3502 65.981 58.2443 66.0069 58.1396 66.0327C51.3612 67.7471 46.8837 73.8084 47.3348 80.8536C47.3748 81.4768 47.2469 82.0508 47.2003 82.6999C46.9728 85.8042 44.8737 87.9815 42.2213 89.0275C40.6508 89.6468 38.8851 89.8718 37.1995 89.6559C36.4149 89.524 35.6937 89.3275 35.037 89.0663C33.5958 88.4948 30.1484 87.1191 24.7002 84.9418C23.816 84.5889 22.8815 84.2139 21.8914 83.8183C20.1645 83.1279 18.9753 82.1142 18.5823 80.4179C18.5048 80.0856 18.4556 79.73 18.4414 79.3434C18.4143 78.5871 18.3949 78.1617 18.382 78.0699C18.0834 75.8732 17.1385 74.0605 15.5525 72.6318C15.2216 72.3332 14.8648 72.0513 14.477 71.7863C14.3129 71.688 14.1461 71.5923 13.9768 71.4992C12.0431 70.4248 9.825 69.6516 7.80209 68.7918C6.89857 68.4078 6.26649 68.0717 5.90844 67.7808C4.37155 66.5331 4.23066 65.1328 4.23195 63.0616C4.23324 57.0766 4.23454 51.0929 4.23324 45.1079C4.23324 44.1149 4.29529 43.3974 4.42325 42.9565C5.22596 40.1741 7.75685 40.0008 9.76037 38.5062C11.9345 36.8849 13.2232 34.4761 13.3228 31.7144C13.3822 30.0414 13.8566 28.7006 15.1957 27.6999C15.8381 27.2189 16.7985 26.8259 17.7253 26.4315C18.1493 26.2518 18.5655 26.0708 18.9417 25.882C21.7117 24.3253 23.2512 21.9438 23.5601 18.736C23.5691 18.6416 23.5743 18.5356 23.5782 18.4244C23.6118 17.3732 23.4373 15.633 23.7605 14.5004C24.1418 13.1673 24.8514 12.4588 26.0729 11.6313C27.0824 10.9461 28.0881 10.2557 29.0885 9.55877C30.8258 8.41452 32.5553 7.25864 34.277 6.09242C35.5709 5.21581 37.1091 4.5228 38.6537 4.48272C41.818 4.40256 44.027 6.74276 46.2257 8.60975C47.1047 9.1502 47.994 9.03125 48.7708 8.38737C48.7941 8.36798 48.8187 8.34988 48.8419 8.33048C49.4133 7.85856 49.9949 7.40216 50.5882 6.96256C53.123 5.08652 55.9758 4.16078 59.1439 4.18534C59.3326 4.18664 59.3649 4.25904 59.2396 4.40126C58.4084 5.34381 57.7725 6.3523 57.3265 7.42414C56.6725 8.99505 56.4295 10.703 56.6027 12.5493C56.7061 13.6587 56.7875 14.512 57.5941 15.1416C58.7768 16.0648 60.5502 15.3537 60.8773 13.9159C60.9975 13.3858 60.8527 12.6967 60.7958 12.111C60.6032 10.0992 61.3297 7.96458 62.8885 6.83068C63.5426 6.35488 64.344 6.05363 65.285 6.01355C66.0968 5.97993 66.9447 6.06268 67.8262 6.2605C67.8702 6.27084 67.9141 6.2786 67.9581 6.28894C69.6734 6.71949 71.1469 7.52111 72.3813 8.6925C74.7662 10.9577 75.8028 13.7776 75.4887 17.1509C75.4823 17.2194 75.4241 17.2698 75.3569 17.2685C72.7885 17.2207 70.4334 17.7676 68.2903 18.9092C67.3312 19.4212 66.4535 20.0263 65.6624 20.7064C65.5926 20.7659 65.5241 20.828 65.4556 20.8887C61.5184 24.4081 59.8238 29.8617 61.2159 35.2144C61.3555 35.7561 61.5365 36.2656 61.9269 36.656C62.1918 36.9211 62.4969 37.0969 62.8136 37.1926C62.8847 37.2146 62.9571 37.2301 63.0294 37.243C64.1087 37.4421 65.2617 36.7556 65.4711 35.5118C65.5952 34.7683 65.1945 33.9305 65.0666 33.1664C63.9472 26.4768 69.6708 20.497 76.4827 21.6296C82.3046 22.5967 85.9419 28.2106 84.5498 33.915C84.1801 35.4329 83.3219 36.3276 84.692 37.746C88.8529 42.0553 88.5775 49.0384 83.7109 52.7323C81.6841 54.2709 79.298 54.9407 76.5538 54.7428C74.8541 54.62 73.7903 56.6422 74.7636 58.0502C75.247 58.7496 75.9657 58.9617 76.8486 58.9953C80.9319 59.1556 84.4723 57.8523 87.4672 55.0855C87.4801 55.0738 87.4944 55.0648 87.5099 55.0583C87.5771 55.0338 87.6507 55.0674 87.6766 55.1346C88.1717 56.4443 88.3953 57.7929 88.3488 59.1828V59.1841Z" fill="#D9D9D9"/>
<path d="M23.0327 58.1695C25.9617 56.9244 26.2551 52.9719 23.6492 51.2097C23.613 51.1851 23.5924 51.145 23.5924 51.1024C23.5898 46.4207 23.5898 41.7842 23.5924 37.1904C23.5936 35.0997 24.0965 33.5702 25.9785 32.466C27.0539 31.9954 28.5494 31.3722 30.4651 30.5978C33.9848 29.1742 36.1111 26.2018 36.2119 22.4109C36.2339 21.5757 36.2262 20.7405 36.19 19.9052C36.1887 19.86 36.2094 19.8173 36.2468 19.7914C39.2599 17.7538 38.3925 13.204 34.7914 12.529C32.0614 12.017 29.6908 14.5615 30.2492 17.2379C30.487 18.3783 31.1217 19.0842 31.9994 19.8276C32.0278 19.8509 32.0433 19.8858 32.0446 19.9233C32.1105 22.2183 32.1984 24.477 30.2285 25.9613C29.8705 26.2315 29.1195 26.6 27.9781 27.0668C26.7902 27.5529 25.6075 28.0546 24.4312 28.5717C21.8887 29.6966 20.0985 32.1467 19.5646 34.7856C19.447 35.3661 19.3875 36.2246 19.3888 37.3585C19.3914 41.9329 19.3914 46.5086 19.3888 51.0843C19.3888 51.1269 19.3682 51.167 19.332 51.1916C15.3094 53.9274 18.6805 60.0184 23.0327 58.1695Z" fill="#D9D9D9"/>
<path d="M47.8686 33.6551C47.5326 34.3999 47.7355 35.0269 47.9811 35.7807C49.7726 41.2834 53.4501 44.914 59.3495 45.7958C59.9932 45.9083 60.6718 45.9897 61.3814 46.0427C61.4628 46.0492 61.5443 46.0543 61.627 46.0595C62.1595 46.0944 62.7076 46.1125 63.2763 46.1151C63.4651 46.1151 63.5698 46.2108 63.5892 46.3983C63.8593 49.0229 64.8443 51.4265 66.5466 53.6089C67.5846 54.9394 69.6824 54.5631 70.2137 52.9625C70.6674 51.5959 69.5816 50.8072 69.0374 49.8258C68.2864 48.4721 67.8521 47.0409 67.7345 45.532C67.7306 45.4725 67.7668 45.4169 67.8224 45.3988C75.2044 42.9345 79.0227 35.3101 76.9287 27.8667C76.687 27.0082 76.2243 26.4509 75.5392 26.1936C74.2001 25.6933 72.8945 26.5401 72.7239 27.9572C72.6606 28.4847 72.9075 29.1519 73.0341 29.7052C74.487 36.0509 69.6734 42.0307 63.1161 41.9027C62.842 41.8976 62.568 41.8859 62.294 41.8717C62.2164 41.8678 62.1376 41.8627 62.06 41.8575C61.1591 41.7993 60.262 41.6894 59.3701 41.5278C55.1369 40.5284 52.9589 38.1351 51.8472 34.0184C51.3134 32.0416 48.7127 31.7843 47.8699 33.6551H47.8686Z" fill="#D9D9D9"/>
<path d="M34.0287 59.3065C34.0287 53.7081 34.0287 48.1084 34.03 42.5075C34.03 42.4648 34.0507 42.426 34.0843 42.4014C37.215 40.206 36.018 35.3485 32.1519 35.108C28.6011 34.8869 26.7036 39.0812 28.9941 41.7162C29.0742 41.808 29.3392 42.0536 29.7877 42.4506C29.8162 42.4751 29.8317 42.51 29.8317 42.5475C29.8278 47.8783 29.8265 53.2116 29.8278 58.545C29.8278 59.4487 29.7658 60.1185 29.643 60.5542C29.0691 62.5918 27.0229 64.0542 24.8862 63.8796C24.4209 63.8421 23.7087 63.6365 22.7496 63.2642C21.6392 62.8336 20.5302 62.3992 19.4224 61.9622C18.325 61.5278 17.2328 61.0869 16.1431 60.6395C15.9467 60.5581 15.7618 60.4714 15.5873 60.3796C15.3508 60.2542 15.1336 60.1185 14.9371 59.9737C13.6032 58.991 13.1508 57.552 13.1508 55.7096C13.1508 53.5943 13.1534 51.4817 13.1572 49.3703C13.1572 49.3251 13.1805 49.2837 13.2193 49.2604C14.8169 48.2662 15.4193 46.116 14.6903 44.4559C13.2607 41.2003 8.64998 41.2158 7.3548 44.5813C6.84939 45.8949 7.02648 47.1633 7.88605 48.3851C8.13811 48.742 8.54011 49.0432 8.87489 49.3522C8.90074 49.3755 8.91625 49.4104 8.91625 49.4466C8.9253 51.2994 8.9253 53.1535 8.91625 55.0088C8.91108 56.1712 8.95244 57.031 9.04034 57.5882C9.47206 60.324 10.85 62.4083 13.1753 63.8421C13.5877 64.0968 14.0569 64.3334 14.5558 64.5584C14.7523 64.6463 14.9527 64.7342 15.1556 64.8183C16.2297 65.2656 17.3918 65.669 18.4207 66.066C20.6233 66.9982 22.1007 67.5683 22.8543 67.7739C28.4176 69.2905 34.0287 65.1195 34.0287 59.3052V59.3065Z" fill="#D9D9D9"/>
<path d="M76.687 67.2603C75.976 66.9513 75.1526 66.9617 74.4016 67.0935C73.9699 67.1698 73.5395 67.2474 73.1103 67.3263C73.1013 67.3276 73.0923 67.3263 73.0832 67.3263C73.0742 67.3263 73.0664 67.3263 73.0574 67.3263C73.0496 67.3237 73.0418 67.3198 73.0341 67.3159C73.0263 67.312 73.0186 67.3107 73.0121 67.3056C73.0056 67.3004 73.0005 67.2939 72.9953 67.2875C72.9901 67.281 72.9837 67.2758 72.9785 67.2694C72.9733 67.2616 72.972 67.2539 72.9695 67.2461C72.9656 67.237 72.9617 67.2293 72.9604 67.2202C72.1771 62.0602 69.4652 58.3262 64.8261 56.0157C63.3241 55.3356 61.7808 54.9361 60.2374 54.79C60.1482 54.7809 60.0577 54.7719 59.9686 54.7654C56.4256 54.4965 52.889 55.5658 49.832 57.6913C48.966 58.2951 48.3068 58.8537 47.8557 59.367C46.6872 60.6974 47.4614 62.5553 49.1547 62.8631C49.9161 63.0014 50.4383 62.6562 51.0432 62.108C53.3156 60.0471 56.3028 58.8446 59.2912 58.9494C59.3856 58.9532 59.48 58.9571 59.573 58.9636C60.9083 59.0476 62.2396 59.3928 63.5012 60.0458C66.8981 61.9089 68.881 65.2563 68.828 69.1532C68.828 69.1958 68.8047 69.2359 68.7685 69.2592C64.4939 72.0532 61.9372 76.7815 62.1336 81.9066C62.1698 82.8259 62.387 83.5952 63.1522 84.0581C64.3259 84.7692 65.793 84.2559 66.2518 82.9837C66.4121 82.5402 66.3617 82.0696 66.3527 81.5873C66.2687 77.2495 68.8396 73.5091 72.8286 71.9136C73.7851 71.5309 74.465 71.2645 75.3853 71.2555C75.8959 71.2503 76.2203 71.2283 76.3612 71.1895C78.2238 70.6724 78.516 68.0516 76.6882 67.2616L76.687 67.2603Z" fill="#D9D9D9"/>
<path d="M53.587 21.4792C54.9973 18.0749 51.3896 14.8736 48.1504 16.4833C46.9418 17.1207 46.2309 18.1176 46.015 19.4764C46.0099 19.5139 45.9866 19.5476 45.9543 19.5669C42.7848 21.496 40.4478 24.687 39.8326 28.3822C39.733 28.9782 39.6826 29.838 39.6839 30.959C39.6839 42.1105 39.6839 53.262 39.6813 64.4149C39.6813 66.234 39.6813 68.0532 39.6813 69.8723C39.6813 70.8873 39.6813 71.9009 39.6813 72.9159C39.6813 74.1752 39.3155 75.2276 38.5891 76.0745C38.2763 76.4391 37.8976 76.7662 37.449 77.0533C35.3822 78.2544 33.6294 77.6092 31.6621 76.6925C31.6259 76.6757 31.6 76.6421 31.591 76.6033C31.1347 74.6419 29.5901 73.371 27.5814 73.4124C24.4029 73.4783 22.6811 77.1257 24.483 79.6572C24.5231 79.7141 24.5632 79.7697 24.6058 79.8253C25.0543 80.3929 25.6192 80.7963 26.2371 81.0368C27.4275 81.501 28.8184 81.3574 29.9701 80.6062C30.0063 80.5817 30.0541 80.5791 30.0942 80.5972C32.616 81.7298 34.8457 82.3827 37.6274 81.5281C41.0463 80.4175 43.8461 77.242 43.8629 73.4977C43.8874 67.845 43.8978 58.6717 43.8926 45.9802C43.8926 44.2529 43.8913 42.4596 43.89 40.6016C43.8874 37.5167 43.8848 34.2547 43.881 30.8103C43.881 29.8845 43.9378 29.1708 44.0542 28.6679C44.4536 26.9418 45.4424 25.3283 46.7932 24.1659C47.1318 23.8737 47.4938 23.6099 47.8751 23.3811C50.0272 24.665 52.6344 23.7806 53.587 21.4805V21.4792ZM48.3352 16.504C48.3352 16.504 48.3391 16.5066 48.3404 16.5079C48.3365 16.504 48.3327 16.504 48.3275 16.5027C48.3301 16.5027 48.3327 16.5027 48.3339 16.5027L48.3352 16.504ZM48.3029 16.5079C48.3029 16.5079 48.3068 16.5066 48.3094 16.5053C48.3055 16.5079 48.3003 16.5092 48.299 16.513C48.299 16.5105 48.3016 16.5092 48.3029 16.5079Z" fill="#D9D9D9"/>
</g>
<defs>
<clipPath id="clip0_439_814">
<rect width="191" height="94" fill="white"/>
</clipPath>
</defs>
</svg>
