<svg width="139" height="81" viewBox="0 0 139 81" fill="none" xmlns="http://www.w3.org/2000/svg">
<g clip-path="url(#clip0_439_657)">
<path fill-rule="evenodd" clip-rule="evenodd" d="M66.1022 25.7967V19.9631H69.0147V25.7967H66.1022ZM66.1022 17.0463V11.2127H69.0147V17.0463H66.1022ZM51.5182 28.7025H66.1022V25.7859H57.354V19.9523H66.1022V17.0355H57.354V11.2019H66.1022V8.28516H51.5182V28.6917V28.7025ZM83.5877 19.9523V17.0355H86.5111V19.9523H83.5877ZM77.7629 28.7025H83.5877V19.9523H80.6752V17.0355H77.7629V8.29596H71.927V17.0463H74.8396V19.9631H77.7629V28.7133V28.7025ZM86.5111 17.0463H89.4234V8.29596H86.5111V17.0463Z" fill="white"/>
<path fill-rule="evenodd" clip-rule="evenodd" d="M74.8503 49.3475V34.7636H77.7628V49.3475H74.8503ZM60.2665 52.2533H74.8503V49.3475H66.1021V34.7636H74.8503V31.8467H60.2665V52.2533ZM92.3358 43.5032V40.5971H95.2591V43.5032H92.3358ZM86.511 52.2533H92.3358V43.5032H89.4233V40.5971H86.511V31.8467H80.6751V40.5971H83.5877V43.5032H86.511V52.2533ZM95.2591 40.5971H98.1715V31.8467H95.2591V40.5971ZM115.668 49.3475V34.7636H118.58V49.3475H115.668ZM103.997 52.2533H115.668V49.3475H106.92V34.7636H115.668V31.8467H103.997V34.7636H101.084V49.3475H103.997V52.2533ZM136.077 52.2533V46.4198H138.989V52.2533H136.077ZM136.077 43.5032V34.7528H138.989V43.5032H136.077ZM121.493 52.2533H127.328V46.4198H136.077V43.5032H127.328V34.7528H136.077V31.8359H121.493V52.2425V52.2533Z" fill="white"/>
<path fill-rule="evenodd" clip-rule="evenodd" d="M51.5181 75.815V72.8982H63.1788V67.0646H54.4306V64.1586H51.5181V58.3143H54.4306V55.4082H69.0146V58.3143H57.3432V64.1586H66.0913V67.0646H69.0039V72.8982H66.0913V75.815H51.5073H51.5181ZM71.927 75.815V72.8982H77.7628V58.3143H71.927V55.4082H89.4233V58.3143H83.5877V72.8982H89.4233V75.815H71.927ZM106.92 72.8982V58.3143H109.832V72.8982H106.92ZM92.3358 75.815H106.92V72.8982H98.1715V58.3143H106.92V55.4082H92.3358V75.815ZM112.745 75.815V55.4082H130.241V58.3143H118.57V64.1586H124.394V67.0646H118.57V72.8982H130.241V75.815H112.745Z" fill="white"/>
<path d="M52.8881 36.4277H50.4934V38.5884H52.8881V36.4277Z" fill="black"/>
<path fill-rule="evenodd" clip-rule="evenodd" d="M5.50131 29.4804H11.0026V31.8787H16.7413V34.5148H22.2426V24.6947H19.3733V22.0589H22.2426V17.2625H16.7521V14.8642H10.9919V12.466H5.49053V9.83008H2.85852V27.0822H5.49053V29.4804H5.50131ZM11.0026 19.6499V17.2517H13.872V19.6499H11.0026ZM11.0026 19.6499V22.0481H8.37064V19.6499H11.0026ZM8.37064 22.0481V24.6839H5.50131V22.0481H8.37064ZM19.3733 24.6839V27.0822H16.7413V24.6839H19.3733ZM16.7413 27.0822V29.4804H13.872V27.0822H16.7413Z" fill="white"/>
<path fill-rule="evenodd" clip-rule="evenodd" d="M8.13336 74.2911H13.3974V76.4515H18.8987V78.6122H24.1628V69.743H21.5307V67.5823H24.1628V63.0237H18.8987V60.8738H13.3974V58.7132H8.13336V56.5527H5.50134V72.1304H8.13336V74.2911ZM13.3974 65.4219V63.0237H16.0294V65.4219H13.3974ZM13.3974 65.4219V67.5823H10.7653V65.4219H13.3974ZM10.7653 67.5823V69.743H8.13336V67.5823H10.7653ZM21.5307 69.743V72.1412H18.8987V69.743H21.5307ZM18.8987 72.1412V74.3019H16.0294V72.1412H18.8987Z" fill="white"/>
<path fill-rule="evenodd" clip-rule="evenodd" d="M11.0027 5.03497V7.43321H5.50134V9.83144H11.0027V12.4674H16.7521V14.8548H27.7548V12.4674H33.2559L33.2669 9.83144H38.7681V7.43321H33.2669V5.03497H27.7548V2.63672H16.7521V5.03497H11.0027Z" fill="white"/>
<path fill-rule="evenodd" clip-rule="evenodd" d="M35.888 14.8533V17.2516H33.2559V14.8533H27.7547V17.2516H24.8853V34.5038H27.7547V31.8678H33.2559V29.4695H38.7572V27.0713H41.6267V12.4551H38.7572V14.8533H35.888ZM33.2559 24.673V22.0372H35.888V24.673H33.2559ZM33.2559 24.673V27.0713H30.3866V24.673H33.2559ZM30.3866 27.0713V29.4695H27.7547V27.0713H30.3866Z" fill="white"/>
<path fill-rule="evenodd" clip-rule="evenodd" d="M22.7279 51.768H27.7547V53.9286H32.7814V56.3268H37.808V47.4577H35.4133V45.0594H37.7972V40.7489H32.7706V38.5885H27.744V36.9141H20.3225L20.3764 49.8451H22.7279V51.7788V51.768ZM27.7547 42.8988V40.7381H30.3867V42.8988H27.7547ZM27.7547 42.8988V45.0594H25.3601V42.8988H27.7547ZM25.3601 45.0594V47.4577H22.7279V45.0594H25.3601ZM35.4133 47.4577V49.6181H32.7814V47.4577H35.4133ZM32.7814 49.6181V51.7788H30.3867V49.6181H32.7814Z" fill="white"/>
<path fill-rule="evenodd" clip-rule="evenodd" d="M37.5708 60.8737V63.0343H34.9388V60.8737H29.4375V63.0343H26.8163V78.612H29.4482V76.4514H34.9496V74.2909H40.2137V72.1303H42.8349L42.9103 58.6914H40.2137V60.8629H37.5816L37.5708 60.8737ZM34.9388 69.7428V67.5822H37.5708V69.7428H34.9388ZM34.9388 69.7428V72.1411H32.0696V69.7428H34.9388ZM32.0696 72.1411V74.3017H29.4375V72.1411H32.0696Z" fill="white"/>
<path fill-rule="evenodd" clip-rule="evenodd" d="M50.4934 38.5767V40.7371H47.8615V38.5767H42.8349V40.7371H40.4402V56.315H42.8349V53.9168H47.8507V51.7561H52.8773V49.5955H55.5095V36.416H52.8773V38.5767H50.4827H50.4934ZM47.8615 47.4458V45.0476H50.4934V47.4458H47.8615ZM47.8615 47.4458V49.6063H45.4668V47.4458H47.8615ZM45.4668 49.6063V51.7669H42.8349V49.6063H45.4668Z" fill="white"/>
<path fill-rule="evenodd" clip-rule="evenodd" d="M22.2534 22.0491V34.5157H16.7521L16.7737 36.9032H17.6906V49.7908L13.3866 49.8451V51.9731C16.8276 51.9191 19.5675 51.9731 22.7497 51.9731V49.7908H20.3981L20.3441 36.914H27.7656V38.5884H32.7922V36.4278H27.7656V34.5157H24.8961V17.2635H27.7656V14.8652H16.7629V17.2635H22.2642V22.0599L22.2534 22.0491Z" fill="black"/>
<path fill-rule="evenodd" clip-rule="evenodd" d="M37.808 45.0491V47.4473V56.3165H32.7814L32.7921 58.7471H42.8995L42.8241 72.1318H40.2027V74.2924H45.4668V56.3165H47.8615V53.9182H42.8348V56.3165H40.4402V40.7386H42.8348V38.5781H32.7814V40.7386H37.808V45.0491Z" fill="black"/>
<path fill-rule="evenodd" clip-rule="evenodd" d="M13.3973 52.0044V54.165H8.1333V56.5633H13.3973V58.7237H18.8986V60.8843H29.4266V58.7237H34.928L32.7813 58.7021V56.3257H27.7439V53.9274H22.7279V51.918C19.5458 51.918 16.6442 52.0152 13.3865 52.0152L13.3973 52.0044Z" fill="white"/>
<path fill-rule="evenodd" clip-rule="evenodd" d="M33.2559 31.8683V34.5043H27.7548V36.4272H32.7814V38.5878H42.8349V36.4272H47.8615V34.0289H52.8881V31.8683H47.8615L47.8399 29.416C44.6578 29.416 41.9071 29.47 38.7681 29.47V31.8683H33.2669H33.2559Z" fill="white"/>
<path fill-rule="evenodd" clip-rule="evenodd" d="M24.1735 67.5727V69.7334V78.6026H18.8987L18.9095 81.0008H29.4267V78.6026H26.8055V63.0248H29.4267V60.875H18.9095V63.0248H24.1735V67.5727Z" fill="black"/>
<path fill-rule="evenodd" clip-rule="evenodd" d="M38.7681 9.82987H41.6375V27.082H38.7573V29.4802C41.9071 29.4802 44.6578 29.4262 47.84 29.4262L47.8615 27.5682H44.2695V7.43164H38.7681V9.82987Z" fill="black"/>
<path fill-rule="evenodd" clip-rule="evenodd" d="M5.50132 29.4802V27.082H2.86933V9.81907L5.50132 9.82987V7.43164H0V29.4694L5.50132 29.4802Z" fill="black"/>
<path fill-rule="evenodd" clip-rule="evenodd" d="M8.13339 74.2909V72.1302H5.50138V56.5525H8.13339V54.1543H2.86938V74.2909H8.13339Z" fill="black"/>
<path fill-rule="evenodd" clip-rule="evenodd" d="M52.8881 34.0298H55.5094V36.428V49.6075H52.8881V51.7681L57.9041 51.7573V31.8691H52.8881V34.0298Z" fill="black"/>
<path d="M27.7655 0H16.7521V2.63591H27.7655V0Z" fill="black"/>
<path d="M16.7413 31.8789H11.0027V34.515H16.7413V31.8789Z" fill="black"/>
<path fill-rule="evenodd" clip-rule="evenodd" d="M33.2559 12.4552H35.888H38.768V9.83008H33.2668L33.2559 12.4552Z" fill="black"/>
<path d="M11.0027 9.83008H5.50134V12.466H11.0027V9.83008Z" fill="black"/>
<path d="M33.2559 31.8691H27.7548V34.5052H33.2559V31.8691Z" fill="black"/>
<path d="M16.7413 2.63672H11.0027V5.03497H16.7413V2.63672Z" fill="black"/>
<path d="M16.7413 12.4668H11.0027V14.865H16.7413V12.4668Z" fill="black"/>
<path d="M11.0027 5.0332H5.50134V7.43145H11.0027V5.0332Z" fill="black"/>
<path d="M33.2559 2.63672H27.7548V5.03497H33.2559V2.63672Z" fill="black"/>
<path d="M38.7735 5.02539L33.2721 5.03116L33.2747 7.42941L38.7758 7.42364L38.7735 5.02539Z" fill="black"/>
<path d="M11.0027 29.4805H5.50134V31.8787H11.0027V29.4805Z" fill="black"/>
<path d="M38.7572 29.4805H33.2559V31.8787H38.7572V29.4805Z" fill="black"/>
<path d="M33.2559 12.4668H27.7548V14.865H33.2559V12.4668Z" fill="black"/>
<path fill-rule="evenodd" clip-rule="evenodd" d="M47.8615 36.4275H50.4934H52.8881L52.8773 34.0293H47.8615V36.4275Z" fill="black"/>
<path d="M32.7814 53.918H27.7548V56.3162H32.7814V53.918Z" fill="black"/>
<path d="M34.928 76.4414H29.4266V78.6021H34.928V76.4414Z" fill="black"/>
<path d="M18.8987 76.4512H13.3973V78.6118H18.8987V76.4512Z" fill="black"/>
<path d="M34.9388 58.6914H29.4374V60.8629H34.9388V58.6914Z" fill="black"/>
<path d="M18.8987 58.7129H13.3973V60.8735H18.8987V58.7129Z" fill="black"/>
<path d="M40.2026 74.291H34.9387V76.4515H40.2026V74.291Z" fill="black"/>
<path d="M13.3973 52.0059H8.1333V54.1665H13.3973V52.0059Z" fill="black"/>
<path d="M13.3973 74.291H8.1333V76.4515H13.3973V74.291Z" fill="black"/>
<path d="M13.3973 56.5527H8.1333V58.7132H13.3973V56.5527Z" fill="black"/>
<path d="M52.8881 51.7676H47.8615V53.9282H52.8881V51.7676Z" fill="black"/>
<path d="M52.8881 29.7188H47.8615V31.8792H52.8881V29.7188Z" fill="black"/>
<path d="M47.8615 36.4277H42.8348V38.5884H47.8615V36.4277Z" fill="black"/>
<path d="M27.7547 51.7676H22.7279V53.9282H27.7547V51.7676Z" fill="black"/>
<path d="M8.38144 22.0488H5.50134V24.6847H8.38144V22.0488Z" fill="black"/>
<path d="M22.2533 22.0488H19.384V24.6847H22.2533V22.0488Z" fill="black"/>
<path d="M41.6375 9.83008H38.7681V12.466H41.6375V9.83008Z" fill="white"/>
<path d="M33.2613 22.0508L33.2585 24.6866L35.8905 24.6894L35.8933 22.0536L33.2613 22.0508Z" fill="white"/>
<path d="M11.0062 17.2598L11.0037 19.658L13.873 19.661L13.8755 17.2628L11.0062 17.2598Z" fill="white"/>
<path d="M33.2559 24.6836H30.3867V27.0818H33.2559V24.6836Z" fill="black"/>
<path d="M35.896 12.457L35.8934 14.8553L38.7629 14.8583L38.7652 12.46L35.896 12.457Z" fill="white"/>
<path d="M16.7413 27.082H13.8719V29.4803H16.7413V27.082Z" fill="black"/>
<path d="M34.928 69.7324H32.0586V72.1307H34.928V69.7324Z" fill="black"/>
<path d="M27.7541 27.0781L27.7515 29.4764L30.3834 29.4792L30.386 27.0809L27.7541 27.0781Z" fill="black"/>
<path d="M16.0293 63.0234H13.3973V65.4217H16.0293V63.0234Z" fill="black"/>
<path d="M35.888 14.8535H33.2559V17.2518H35.888V14.8535Z" fill="black"/>
<path d="M25.3601 45.0488H22.7279V47.4471H25.3601V45.0488Z" fill="white"/>
<path fill-rule="evenodd" clip-rule="evenodd" d="M16.7521 27.0818H19.3841V24.6836H16.7521V27.0818Z" fill="black"/>
<path fill-rule="evenodd" clip-rule="evenodd" d="M8.37061 22.0486H11.0134L11.0026 19.6504H8.37061V22.0486Z" fill="black"/>
<path d="M21.5307 69.7324H18.8987V72.1307H21.5307V69.7324Z" fill="black"/>
<path d="M35.888 12.4551H33.2559V14.8533H35.888V12.4551Z" fill="white"/>
<path d="M55.5202 34.0293H52.8881V36.4275H55.5202V34.0293Z" fill="white"/>
<path d="M50.4934 45.0488H47.8615V47.4471H50.4934V45.0488Z" fill="white"/>
<path d="M18.8986 72.1309H16.0293V74.2915H18.8986V72.1309Z" fill="black"/>
<path d="M37.808 45.0488H35.4133V47.4471H37.808V45.0488Z" fill="black"/>
<path d="M45.4668 49.6074H42.8348V51.7681H45.4668V49.6074Z" fill="white"/>
<path d="M50.4934 38.5781H47.8615V40.7386H50.4934V38.5781Z" fill="black"/>
<path d="M35.4133 47.4473H32.7814V49.6077H35.4133V47.4473Z" fill="black"/>
<path d="M10.7653 67.582H8.1333V69.7427H10.7653V67.582Z" fill="black"/>
<path d="M24.1627 67.5723H21.5306V69.7329H24.1627V67.5723Z" fill="black"/>
<path d="M32.0586 72.1309H29.4266V74.2915H32.0586V72.1309Z" fill="black"/>
<path d="M37.5707 67.5723H34.9387V69.7329H37.5707V67.5723Z" fill="black"/>
<path fill-rule="evenodd" clip-rule="evenodd" d="M37.5707 60.8741L34.9387 60.8633V63.0239L37.5599 63.0023L37.5707 60.8741Z" fill="black"/>
<path fill-rule="evenodd" clip-rule="evenodd" d="M10.7654 67.5823H13.3974V65.4219H10.7654V67.5823Z" fill="black"/>
<path fill-rule="evenodd" clip-rule="evenodd" d="M34.9388 60.8633L37.5707 60.8741L37.56 58.7461H34.9172L34.9388 60.8633Z" fill="white"/>
<path d="M50.4934 36.4277H47.8615V38.5884H50.4934V36.4277Z" fill="white"/>
<path d="M30.3867 40.7383H27.7548V42.8989H30.3867V40.7383Z" fill="white"/>
<path d="M40.2027 58.7461H37.5599V60.8633H40.2027V58.7461Z" fill="black"/>
<path d="M27.7548 42.8984H25.3601V45.0591H27.7548V42.8984Z" fill="black"/>
<path d="M30.3884 49.6055L30.3862 51.7661L32.7809 51.7685L32.7833 49.6081L30.3884 49.6055Z" fill="black"/>
<path d="M47.8615 47.4473H45.4668V49.6077H47.8615V47.4473Z" fill="black"/>
</g>
<defs>
<clipPath id="clip0_439_657">
<rect width="139" height="81" fill="white"/>
</clipPath>
</defs>
</svg>
